<svg xmlns="http://www.w3.org/2000/svg" version="1.1" xmlns:xlink="http://www.w3.org/1999/xlink" xmlns:svgjs="http://svgjs.dev/svgjs" width="1500" height="1500" viewBox="0 0 1500 1500"><rect width="1500" height="1500" fill="#ffffff"></rect><g transform="matrix(0.6666666666666666,0,0,0.6666666666666666,249.39393939393938,596.3077846548221)"><svg viewBox="0 0 396 121" data-background-color="#040046" preserveAspectRatio="xMidYMid meet" height="458" width="1500" xmlns="http://www.w3.org/2000/svg" xmlns:xlink="http://www.w3.org/1999/xlink"><g id="tight-bounds" transform="matrix(1,0,0,1,0.2400000000000091,0.4064128496720798)"><svg viewBox="0 0 395.52 120.18717430065583" height="120.18717430065583" width="395.52"><rect width="395.52" height="120.18717430065583" fill="#000000" mask="url(#eaec1242-53e2-4f75-ae7f-943b8806f298)" data-fill-palette-color="tertiary"></rect><g><svg viewBox="0 0 591.309879880171 179.68209850034884" height="120.18717430065583" width="395.52"><g transform="matrix(1,0,0,1,0,3.1637224289738413)"><svg viewBox="0 0 395.52 173.35465364240116" height="173.35465364240116" width="395.52"><g id="textblocktransform"><svg viewBox="0 0 395.52 173.35465364240116" height="173.35465364240116" width="395.52" id="textblock"><g><svg viewBox="0 0 395.52 67.87534462301801" height="67.87534462301801" width="395.52"><g transform="matrix(1,0,0,1,0,0)"><svg width="395.52" viewBox="0.15 -38.35 226.32 38.84" height="67.87534462301801" data-palette-color="url(#dcc284e5-666e-423d-b090-f7d0a8f0c145)"></svg></g></svg></g><g transform="matrix(1,0,0,1,0,99.92282433746522)"><svg viewBox="0 0 395.52 73.43182930493596" height="73.43182930493596" width="395.52"><path d="M395.52 0l-12.239 36.716 12.239 36.716h-395.52l12.239-36.716-12.239-36.716z" data-fill-palette-color="tertiary" opacity="1" fill="#000000"></path><g transform="matrix(1,0,0,1,75.54432000000001,16.0237398572236)"><svg width="244.43135999999996" viewBox="0.25 -37.7 227.07 38.45" height="41.38434959048876" data-palette-color="#000000"><path d="M14-5L16.15-1.2Q13.7 0.75 10.4 0.75L10.4 0.75Q6.95 0.75 5.15-1.23 3.35-3.2 3.35-6.6L3.35-6.6 3.35-22 0.25-22 0.25-26.45 3.35-26.45 3.35-32.3 9.5-33.05 9.5-26.45 14.5-26.45 13.9-22 9.5-22 9.5-6.6Q9.5-4.2 11.55-4.2L11.55-4.2Q12.2-4.2 12.7-4.38 13.2-4.55 14-5L14-5ZM30.35-27.1Q31.5-27.1 32.4-26.75L32.4-26.75 31.4-20.85Q30.4-21.1 29.55-21.1L29.55-21.1Q27.65-21.1 26.55-19.45 25.45-17.8 24.85-14.55L24.85-14.55 24.85 0 18.7 0 18.7-26.45 24.05-26.45 24.5-21.85Q26.35-27.1 30.35-27.1L30.35-27.1ZM52.15-6.4Q52.15-5.1 52.5-4.48 52.85-3.85 53.65-3.45L53.65-3.45 52.4 0.65Q50.34 0.4 49.12-0.45 47.9-1.3 47.3-3.05L47.3-3.05Q45 0.75 40.85 0.75L40.85 0.75Q37.55 0.75 35.6-1.48 33.65-3.7 33.65-7.4L33.65-7.4Q33.65-11.7 36.32-13.95 39-16.2 44.1-16.2L44.1-16.2 46.15-16.2 46.15-18.05Q46.15-20.55 45.27-21.58 44.4-22.6 42.45-22.6L42.45-22.6Q40.1-22.6 36.6-21.3L36.6-21.3 35.2-25.3Q37.2-26.2 39.35-26.68 41.5-27.15 43.45-27.15L43.45-27.15Q52.15-27.15 52.15-18.35L52.15-18.35 52.15-6.4ZM42.5-3.7Q44.9-3.7 46.15-7L46.15-7 46.15-12.55 44.7-12.55Q42.15-12.55 40.97-11.4 39.8-10.25 39.8-7.85L39.8-7.85Q39.8-5.8 40.5-4.75 41.2-3.7 42.5-3.7L42.5-3.7ZM67.44-27.15Q69.59-27.15 71.34-26.43 73.09-25.7 74.69-24.15L74.69-24.15 72.04-20.65Q70.94-21.55 69.97-21.98 68.99-22.4 67.84-22.4L67.84-22.4Q65.59-22.4 64.44-20.28 63.29-18.15 63.29-13.1L63.29-13.1Q63.29-8.2 64.47-6.2 65.64-4.2 67.84-4.2L67.84-4.2Q68.94-4.2 69.84-4.6 70.74-5 71.94-5.85L71.94-5.85 74.69-2.3Q71.49 0.75 67.54 0.75L67.54 0.75Q62.44 0.75 59.62-2.73 56.79-6.2 56.79-13L56.79-13Q56.79-17.4 58.09-20.6 59.39-23.8 61.82-25.48 64.24-27.15 67.44-27.15L67.44-27.15ZM77.74-37.05L83.89-37.7 83.89 0 77.74 0 77.74-37.05ZM91.24-26.45L97.24-26.45 90.24-14.75 97.84 0 91.24 0 84.14-14.45 91.24-26.45ZM124.44-18.3Q127.79-17.55 129.71-15.63 131.64-13.7 131.64-9.9L131.64-9.9Q131.64-4.9 128.26-2.45 124.89 0 119.09 0L119.09 0 110.39 0 110.39-34.55 117.94-34.55Q123.89-34.55 127.14-32.3 130.39-30.05 130.39-25.75L130.39-25.75Q130.39-22.85 128.76-20.95 127.14-19.05 124.44-18.3L124.44-18.3ZM118.59-29.85L116.74-29.85 116.74-20.3 118.89-20.3Q123.94-20.3 123.94-25.2L123.94-25.2Q123.94-27.65 122.66-28.75 121.39-29.85 118.59-29.85L118.59-29.85ZM119.14-4.8Q122.04-4.8 123.54-6.03 125.04-7.25 125.04-10.15L125.04-10.15Q125.04-13.05 123.64-14.43 122.24-15.8 119.29-15.8L119.29-15.8 116.74-15.8 116.74-4.8 119.14-4.8ZM154.48-13.85Q154.48-13.4 154.33-11.3L154.33-11.3 140.68-11.3Q140.88-7.2 142.11-5.58 143.33-3.95 145.58-3.95L145.58-3.95Q147.13-3.95 148.38-4.48 149.63-5 151.08-6.15L151.08-6.15 153.63-2.65Q150.13 0.75 145.23 0.75L145.23 0.75Q140.03 0.75 137.26-2.85 134.48-6.45 134.48-13L134.48-13Q134.48-19.55 137.13-23.35 139.78-27.15 144.63-27.15L144.63-27.15Q149.28-27.15 151.88-23.78 154.48-20.4 154.48-13.85L154.48-13.85ZM148.48-15.3L148.48-15.65Q148.48-19.4 147.58-21.13 146.68-22.85 144.68-22.85L144.68-22.85Q142.83-22.85 141.86-21.18 140.88-19.5 140.68-15.3L140.68-15.3 148.48-15.3ZM169.93-5L172.08-1.2Q169.63 0.75 166.33 0.75L166.33 0.75Q162.88 0.75 161.08-1.23 159.28-3.2 159.28-6.6L159.28-6.6 159.28-22 156.18-22 156.18-26.45 159.28-26.45 159.28-32.3 165.43-33.05 165.43-26.45 170.43-26.45 169.83-22 165.43-22 165.43-6.6Q165.43-4.2 167.48-4.2L167.48-4.2Q168.13-4.2 168.63-4.38 169.13-4.55 169.93-5L169.93-5ZM185.78-5L187.93-1.2Q185.48 0.75 182.18 0.75L182.18 0.75Q178.73 0.75 176.93-1.23 175.13-3.2 175.13-6.6L175.13-6.6 175.13-22 172.03-22 172.03-26.45 175.13-26.45 175.13-32.3 181.28-33.05 181.28-26.45 186.28-26.45 185.68-22 181.28-22 181.28-6.6Q181.28-4.2 183.33-4.2L183.33-4.2Q183.98-4.2 184.48-4.38 184.98-4.55 185.78-5L185.78-5ZM209.33-13.85Q209.33-13.4 209.18-11.3L209.18-11.3 195.53-11.3Q195.73-7.2 196.95-5.58 198.18-3.95 200.43-3.95L200.43-3.95Q201.98-3.95 203.23-4.48 204.48-5 205.93-6.15L205.93-6.15 208.48-2.65Q204.98 0.75 200.08 0.75L200.08 0.75Q194.88 0.75 192.1-2.85 189.33-6.45 189.33-13L189.33-13Q189.33-19.55 191.98-23.35 194.63-27.15 199.48-27.15L199.48-27.15Q204.13-27.15 206.73-23.78 209.33-20.4 209.33-13.85L209.33-13.85ZM203.33-15.3L203.33-15.65Q203.33-19.4 202.43-21.13 201.53-22.85 199.53-22.85L199.53-22.85Q197.68-22.85 196.7-21.18 195.73-19.5 195.53-15.3L195.53-15.3 203.33-15.3ZM225.27-27.1Q226.42-27.1 227.32-26.75L227.32-26.75 226.32-20.85Q225.32-21.1 224.47-21.1L224.47-21.1Q222.57-21.1 221.47-19.45 220.37-17.8 219.77-14.55L219.77-14.55 219.77 0 213.62 0 213.62-26.45 218.97-26.45 219.42-21.85Q221.27-27.1 225.27-27.1L225.27-27.1Z" opacity="1" transform="matrix(1,0,0,1,0,0)" fill="#ffffff" class="slogan-text-1" data-fill-palette-color="quaternary" id="text-1"></path></svg></g></svg></g></svg></g></svg></g><g transform="matrix(1,0,0,1,411.54373985722356,0)"><svg viewBox="0 0 179.76614002294744 179.68209850034884" height="179.68209850034884" width="179.76614002294744"><g><svg xmlns="http://www.w3.org/2000/svg" xmlns:xlink="http://www.w3.org/1999/xlink" version="1.1" x="0" y="0" viewBox="0.7607695154586737 0.7749999999999999 30.439230484541326 30.425" enable-background="new 0 0 32 32" xml:space="preserve" height="179.68209850034884" width="179.76614002294744" class="icon-icon-0" data-fill-palette-color="accent" id="icon-0"></svg></g></svg></g></svg></g><defs></defs><mask id="081f833a-cbf9-43ef-b1fc-3607aca8027e"><g id="SvgjsG5322"><svg viewBox="0 0 395.52 120.18717430065583" height="120.18717430065583" width="395.52"><g><svg viewBox="0 0 591.309879880171 179.68209850034884" height="120.18717430065583" width="395.52"><g transform="matrix(1,0,0,1,0,3.1637224289738413)"><svg viewBox="0 0 395.52 173.35465364240116" height="173.35465364240116" width="395.52"><g id="SvgjsG5321"><svg viewBox="0 0 395.52 173.35465364240116" height="173.35465364240116" width="395.52" id="SvgjsSvg5320"><g><svg viewBox="0 0 395.52 67.87534462301801" height="67.87534462301801" width="395.52"><g transform="matrix(1,0,0,1,0,0)"><svg width="395.52" viewBox="0.15 -38.35 226.32 38.84" height="67.87534462301801" data-palette-color="url(#dcc284e5-666e-423d-b090-f7d0a8f0c145)"><path d="M16.38 0.02L11.62 0.02 11.62-31.98 0.15-31.98 0.15-35.55 27.91-35.55 27.91-31.98 16.38-31.98 16.38 0.02ZM36.67 0L32.25 0 32.25-26.42 35.84-26.42 36.28-20.92Q37.64-24.19 39.65-25.46 41.65-26.73 43.89-26.73L43.89-26.73Q44.43-26.73 44.89-26.71 45.36-26.68 45.82-26.61L45.82-26.61 45.48-23.1Q45.24-23.1 44.99-23.11 44.75-23.12 44.48-23.12L44.48-23.12Q41.84-23.12 40.11-22.02 38.38-20.92 37.52-19.08 36.67-17.24 36.67-14.99L36.67-14.99 36.67 0ZM57.98 0.49L57.98 0.49Q54.19 0.49 51.83-1.42 49.46-3.32 49.46-7.18L49.46-7.18Q49.46-8.94 50.08-10.3 50.7-11.67 51.97-12.61 53.24-13.55 55.24-14.04 57.25-14.53 59.98-14.53L59.98-14.53 65.94-14.53 65.94-17.58Q65.94-20.78 64.5-22.2 63.06-23.63 60.15-23.63L60.15-23.63Q58.27-23.63 55.92-23.03 53.56-22.44 51.68-21.14L51.68-21.14 50.39-24.51Q51.73-25.37 53.35-25.92 54.98-26.46 56.75-26.73 58.52-27 60.27-27L60.27-27Q63.25-27 65.52-26.05 67.79-25.1 69.07-22.95 70.36-20.8 70.36-17.21L70.36-17.21 70.36 0 66.65 0 66.33-3.25Q65.28-2 64.03-1.17 62.79-0.34 61.29 0.07 59.79 0.49 57.98 0.49ZM58.66-2.66L58.66-2.66Q61.01-2.66 62.86-3.64 64.72-4.61 65.94-6.18L65.94-6.18 65.94-11.72 60.79-11.72Q58.1-11.72 56.54-11.21 54.98-10.69 54.33-9.68 53.68-8.67 53.68-7.13L53.68-7.13Q53.68-4.64 55.13-3.65 56.59-2.66 58.66-2.66ZM88.93 0.49L88.93 0.49Q85.27 0.49 82.57-1.2 79.88-2.88 78.4-5.97 76.92-9.06 76.92-13.26L76.92-13.26Q76.92-17.48 78.4-20.56 79.88-23.63 82.57-25.32 85.27-27 88.93-27L88.93-27Q91.84-27 93.74-26.16 95.65-25.32 96.77-24.02 97.89-22.73 98.45-21.39L98.45-21.39 95.7-19.8 95.38-19.8Q94.47-21.46 93.05-22.56 91.62-23.66 89.13-23.66L89.13-23.66Q86.61-23.66 84.9-22.42 83.2-21.19 82.34-18.86 81.49-16.53 81.49-13.26L81.49-13.26Q81.49-10.01 82.34-7.68 83.2-5.35 84.89-4.1 86.59-2.86 89.13-2.86L89.13-2.86Q91.62-2.86 93.03-3.92 94.45-4.98 95.35-6.64L95.35-6.64 95.67-6.64 98.45-5.13Q97.89-3.78 96.77-2.49 95.65-1.2 93.74-0.35 91.84 0.49 88.93 0.49ZM109.17 0L104.73 0 104.73-37.6 109.17-38.09 109.17-18.68 109.02-13.48 121.08-26.42 126.11-26.42 126.11-25.85 115.27-14.43 126.89-0.61 126.89 0 122.13 0 112.12-12.3 109.17-9.77 109.17 0ZM139.25 0.02L135.27 0.02 128.04-26.42 132.21-26.42 137.49-5.81 143.59-26.42 148.23-26.42 154.72-5.74 159.63-26.42 163.68-26.42 156.8 0.02 152.8 0.02 146.01-22.14 139.25 0.02ZM173.18 0L168.74 0 168.74-26.42 173.18-26.42 173.18 0ZM170.96-32.47L170.96-32.47Q169.47-32.47 168.66-33.25 167.86-34.03 167.86-35.45L167.86-35.45Q167.86-36.82 168.66-37.59 169.47-38.35 170.96-38.35L170.96-38.35Q172.45-38.35 173.25-37.59 174.06-36.82 174.06-35.45L174.06-35.45Q174.06-34.03 173.25-33.25 172.45-32.47 170.96-32.47ZM189.46 0.49L189.46 0.49Q186.29 0.49 183.56-0.57 180.84-1.64 179.21-3.69L179.21-3.69 181.53-5.93 181.87-5.93Q183.45-4.1 185.53-3.42 187.6-2.73 189.46-2.73L189.46-2.73Q192-2.73 193.39-3.91 194.78-5.08 194.78-7.5L194.78-7.5Q194.78-8.35 194.46-9.05 194.15-9.74 193.17-10.36 192.19-10.99 190.17-11.62L190.17-11.62 187.19-12.55Q183.99-13.55 182.45-14.65 180.92-15.75 180.44-17.04 179.96-18.33 179.96-19.9L179.96-19.9Q179.96-23.19 182.54-25.1 185.11-27 189.53-27L189.53-27Q191.68-27 193.37-26.5 195.05-26 196.3-25.13 197.54-24.27 198.32-23.14L198.32-23.14 195.91-21.17 195.66-21.17Q194.76-22.24 193.22-22.95 191.68-23.66 189.56-23.66L189.56-23.66Q187.7-23.66 186.55-23.21 185.41-22.75 184.87-21.9 184.33-21.04 184.33-19.87L184.33-19.87Q184.33-18.53 185.13-17.72 185.92-16.92 188.63-16.06L188.63-16.06 191.56-15.14Q194.73-14.11 196.28-12.94 197.83-11.77 198.33-10.46 198.84-9.16 198.84-7.67L198.84-7.67Q198.84-4.79 197.57-2.99 196.3-1.2 194.17-0.35 192.05 0.49 189.46 0.49ZM216.7 0.49L216.7 0.49Q213.14 0.49 210.27-1.15 207.4-2.78 205.73-5.85 204.06-8.91 204.06-13.13L204.06-13.13Q204.06-17.53 205.69-20.63 207.33-23.73 210.09-25.37 212.85-27 216.17-27L216.17-27Q219.41-27 221.71-25.56 224-24.12 225.24-21.46 226.47-18.8 226.47-15.14L226.47-15.14Q226.47-14.77 226.41-14.14 226.35-13.5 226.3-12.99 226.25-12.48 226.25-12.43L226.25-12.43 208.6-12.43Q208.79-9.06 209.95-6.93 211.11-4.81 213-3.81 214.9-2.81 217.27-2.81L217.27-2.81Q219.54-2.81 221.15-3.45 222.76-4.1 224.39-5.03L224.39-5.03 224.71-5.03 225.74-2.12Q224.1-1 221.79-0.26 219.49 0.49 216.7 0.49ZM208.67-15.31L208.67-15.31 222.66-15.31Q222.61-19.29 221.09-21.5 219.56-23.71 216.39-23.71L216.39-23.71Q213.19-23.71 211.1-21.45 209.01-19.19 208.67-15.31Z" opacity="1" transform="matrix(1,0,0,1,0,0)" fill="white" class="wordmark-text-0" id="SvgjsPath5319"></path></svg></g></svg></g><g transform="matrix(1,0,0,1,0,99.92282433746522)"><svg viewBox="0 0 395.52 73.43182930493596" height="73.43182930493596" width="395.52"><path d="M395.52 0l-12.239 36.716 12.239 36.716h-395.52l12.239-36.716-12.239-36.716z" opacity="1" fill="black"></path><g transform="matrix(1,0,0,1,75.54432000000001,16.0237398572236)"><svg width="244.43135999999996" viewBox="0.25 -37.7 227.07 38.45" height="41.38434959048876" data-palette-color="#000000"><path d="M14-5L16.15-1.2Q13.7 0.75 10.4 0.75L10.4 0.75Q6.95 0.75 5.15-1.23 3.35-3.2 3.35-6.6L3.35-6.6 3.35-22 0.25-22 0.25-26.45 3.35-26.45 3.35-32.3 9.5-33.05 9.5-26.45 14.5-26.45 13.9-22 9.5-22 9.5-6.6Q9.5-4.2 11.55-4.2L11.55-4.2Q12.2-4.2 12.7-4.38 13.2-4.55 14-5L14-5ZM30.35-27.1Q31.5-27.1 32.4-26.75L32.4-26.75 31.4-20.85Q30.4-21.1 29.55-21.1L29.55-21.1Q27.65-21.1 26.55-19.45 25.45-17.8 24.85-14.55L24.85-14.55 24.85 0 18.7 0 18.7-26.45 24.05-26.45 24.5-21.85Q26.35-27.1 30.35-27.1L30.35-27.1ZM52.15-6.4Q52.15-5.1 52.5-4.48 52.85-3.85 53.65-3.45L53.65-3.45 52.4 0.65Q50.34 0.4 49.12-0.45 47.9-1.3 47.3-3.05L47.3-3.05Q45 0.75 40.85 0.75L40.85 0.75Q37.55 0.75 35.6-1.48 33.65-3.7 33.65-7.4L33.65-7.4Q33.65-11.7 36.32-13.95 39-16.2 44.1-16.2L44.1-16.2 46.15-16.2 46.15-18.05Q46.15-20.55 45.27-21.58 44.4-22.6 42.45-22.6L42.45-22.6Q40.1-22.6 36.6-21.3L36.6-21.3 35.2-25.3Q37.2-26.2 39.35-26.68 41.5-27.15 43.45-27.15L43.45-27.15Q52.15-27.15 52.15-18.35L52.15-18.35 52.15-6.4ZM42.5-3.7Q44.9-3.7 46.15-7L46.15-7 46.15-12.55 44.7-12.55Q42.15-12.55 40.97-11.4 39.8-10.25 39.8-7.85L39.8-7.85Q39.8-5.8 40.5-4.75 41.2-3.7 42.5-3.7L42.5-3.7ZM67.44-27.15Q69.59-27.15 71.34-26.43 73.09-25.7 74.69-24.15L74.69-24.15 72.04-20.65Q70.94-21.55 69.97-21.98 68.99-22.4 67.84-22.4L67.84-22.4Q65.59-22.4 64.44-20.28 63.29-18.15 63.29-13.1L63.29-13.1Q63.29-8.2 64.47-6.2 65.64-4.2 67.84-4.2L67.84-4.2Q68.94-4.2 69.84-4.6 70.74-5 71.94-5.85L71.94-5.85 74.69-2.3Q71.49 0.75 67.54 0.75L67.54 0.75Q62.44 0.75 59.62-2.73 56.79-6.2 56.79-13L56.79-13Q56.79-17.4 58.09-20.6 59.39-23.8 61.82-25.48 64.24-27.15 67.44-27.15L67.44-27.15ZM77.74-37.05L83.89-37.7 83.89 0 77.74 0 77.74-37.05ZM91.24-26.45L97.24-26.45 90.24-14.75 97.84 0 91.24 0 84.14-14.45 91.24-26.45ZM124.44-18.3Q127.79-17.55 129.71-15.63 131.64-13.7 131.64-9.9L131.64-9.9Q131.64-4.9 128.26-2.45 124.89 0 119.09 0L119.09 0 110.39 0 110.39-34.55 117.94-34.55Q123.89-34.55 127.14-32.3 130.39-30.05 130.39-25.75L130.39-25.75Q130.39-22.85 128.76-20.95 127.14-19.05 124.44-18.3L124.44-18.3ZM118.59-29.85L116.74-29.85 116.74-20.3 118.89-20.3Q123.94-20.3 123.94-25.2L123.94-25.2Q123.94-27.65 122.66-28.75 121.39-29.85 118.59-29.85L118.59-29.85ZM119.14-4.8Q122.04-4.8 123.54-6.03 125.04-7.25 125.04-10.15L125.04-10.15Q125.04-13.05 123.64-14.43 122.24-15.8 119.29-15.8L119.29-15.8 116.74-15.8 116.74-4.8 119.14-4.8ZM154.48-13.85Q154.48-13.4 154.33-11.3L154.33-11.3 140.68-11.3Q140.88-7.2 142.11-5.58 143.33-3.95 145.58-3.95L145.58-3.95Q147.13-3.95 148.38-4.48 149.63-5 151.08-6.15L151.08-6.15 153.63-2.65Q150.13 0.75 145.23 0.75L145.23 0.75Q140.03 0.75 137.26-2.85 134.48-6.45 134.48-13L134.48-13Q134.48-19.55 137.13-23.35 139.78-27.15 144.63-27.15L144.63-27.15Q149.28-27.15 151.88-23.78 154.48-20.4 154.48-13.85L154.48-13.85ZM148.48-15.3L148.48-15.65Q148.48-19.4 147.58-21.13 146.68-22.85 144.68-22.85L144.68-22.85Q142.83-22.85 141.86-21.18 140.88-19.5 140.68-15.3L140.68-15.3 148.48-15.3ZM169.93-5L172.08-1.2Q169.63 0.75 166.33 0.75L166.33 0.75Q162.88 0.75 161.08-1.23 159.28-3.2 159.28-6.6L159.28-6.6 159.28-22 156.18-22 156.18-26.45 159.28-26.45 159.28-32.3 165.43-33.05 165.43-26.45 170.43-26.45 169.83-22 165.43-22 165.43-6.6Q165.43-4.2 167.48-4.2L167.48-4.2Q168.13-4.2 168.63-4.38 169.13-4.55 169.93-5L169.93-5ZM185.78-5L187.93-1.2Q185.48 0.75 182.18 0.75L182.18 0.75Q178.73 0.75 176.93-1.23 175.13-3.2 175.13-6.6L175.13-6.6 175.13-22 172.03-22 172.03-26.45 175.13-26.45 175.13-32.3 181.28-33.05 181.28-26.45 186.28-26.45 185.68-22 181.28-22 181.28-6.6Q181.28-4.2 183.33-4.2L183.33-4.2Q183.98-4.2 184.48-4.38 184.98-4.55 185.78-5L185.78-5ZM209.33-13.85Q209.33-13.4 209.18-11.3L209.18-11.3 195.53-11.3Q195.73-7.2 196.95-5.58 198.18-3.95 200.43-3.95L200.43-3.95Q201.98-3.95 203.23-4.48 204.48-5 205.93-6.15L205.93-6.15 208.48-2.65Q204.98 0.75 200.08 0.75L200.08 0.75Q194.88 0.75 192.1-2.85 189.33-6.45 189.33-13L189.33-13Q189.33-19.55 191.98-23.35 194.63-27.15 199.48-27.15L199.48-27.15Q204.13-27.15 206.73-23.78 209.33-20.4 209.33-13.85L209.33-13.85ZM203.33-15.3L203.33-15.65Q203.33-19.4 202.43-21.13 201.53-22.85 199.53-22.85L199.53-22.85Q197.68-22.85 196.7-21.18 195.73-19.5 195.53-15.3L195.53-15.3 203.33-15.3ZM225.27-27.1Q226.42-27.1 227.32-26.75L227.32-26.75 226.32-20.85Q225.32-21.1 224.47-21.1L224.47-21.1Q222.57-21.1 221.47-19.45 220.37-17.8 219.77-14.55L219.77-14.55 219.77 0 213.62 0 213.62-26.45 218.97-26.45 219.42-21.85Q221.27-27.1 225.27-27.1L225.27-27.1Z" opacity="1" transform="matrix(1,0,0,1,0,0)" fill="black" class="slogan-text-1" id="SvgjsPath5318"></path></svg></g></svg></g></svg></g></svg></g><g transform="matrix(1,0,0,1,411.54373985722356,0)"><svg viewBox="0 0 179.76614002294744 179.68209850034884" height="179.68209850034884" width="179.76614002294744"><g><svg xmlns="http://www.w3.org/2000/svg" xmlns:xlink="http://www.w3.org/1999/xlink" version="1.1" x="0" y="0" viewBox="0.7607695154586737 0.7749999999999999 30.439230484541326 30.425" enable-background="new 0 0 32 32" xml:space="preserve" height="179.68209850034884" width="179.76614002294744" class="icon-icon-0" data-fill-palette-color="accent" id="SvgjsSvg5317"><g fill="black"><g fill="black"><path fill="black" d="M1.5 31.2C1.3 31.2 1.1 31.1 1 31 0.8 30.8 0.7 30.6 0.8 30.3L4.5 11.2C4.6 10.9 4.8 10.6 5.1 10.6L14.7 9.3C14.9 9.3 15.2 9.3 15.3 9.5L22.5 16.7C22.7 16.9 22.7 17.1 22.7 17.3L21.4 26.9C21.4 27.2 21.1 27.5 20.8 27.5L1.6 31.2zM5.8 12.1L2.4 29.6 19.9 26.2 21.1 17.5 14.4 10.8z"></path></g><g fill="black"><rect x="5.2" y="19.8" transform="matrix(-0.7071 -0.7071 0.7071 -0.7071 -8.3465 48.7211)" fill="black" width="1.5" height="12.6"></rect></g><g fill="black"><path fill="black" d="M12 23.1C11.2 23.1 10.4 22.8 9.8 22.2S8.9 20.9 8.9 20C8.9 19.2 9.2 18.4 9.8 17.8 11 16.6 13 16.6 14.1 17.8 15.3 19 15.3 20.9 14.1 22.1 13.6 22.8 12.8 23.1 12 23.1M12 18.4C11.6 18.4 11.2 18.6 10.9 18.9S10.4 19.6 10.4 20 10.6 20.8 10.9 21.1C11.5 21.7 12.5 21.7 13.1 21.1S13.7 19.5 13.1 18.9C12.8 18.6 12.4 18.4 12 18.4"></path></g><g fill="black"><path fill="black" d="M23.8 18.7C22.9 18.7 22 18.3 21.4 17.7L14.3 10.6C13 9.3 13 7.1 14.3 5.8L19.1 1C19.4 0.7 19.9 0.7 20.2 1L31 11.8C31.1 11.9 31.2 12.1 31.2 12.3S31.1 12.7 31 12.8L26.1 17.7C25.5 18.4 24.7 18.7 23.8 18.7M19.7 2.6L15.4 6.9C14.7 7.6 14.7 8.9 15.4 9.6L22.5 16.7C23.2 17.4 24.5 17.4 25.2 16.7L29.5 12.4z"></path></g></g></svg></g></svg></g></svg></g><defs><mask></mask></defs></svg><rect width="395.52" height="120.18717430065583" fill="black" stroke="none" visibility="hidden"></rect></g></mask><linearGradient x1="0" x2="1" y1="0.578" y2="0.595" id="dcc284e5-666e-423d-b090-f7d0a8f0c145"><stop stop-color="#6ee2f5" offset="0"></stop><stop stop-color="#6454f0" offset="1"></stop></linearGradient><rect width="395.52" height="120.18717430065583" fill="#000000" mask="url(#081f833a-cbf9-43ef-b1fc-3607aca8027e)" data-fill-palette-color="primary"></rect><mask id="ee30cf10-faa1-46c9-a73d-e8a2d3b80ffc"><g id="SvgjsG5345"><svg viewBox="0 0 395.52 120.18717430065583" height="120.18717430065583" width="395.52"><g><svg viewBox="0 0 591.309879880171 179.68209850034884" height="120.18717430065583" width="395.52"><g transform="matrix(1,0,0,1,0,3.1637224289738413)"><svg viewBox="0 0 395.52 173.35465364240116" height="173.35465364240116" width="395.52"><g id="SvgjsG5344"><svg viewBox="0 0 395.52 173.35465364240116" height="173.35465364240116" width="395.52" id="SvgjsSvg5343"><g><svg viewBox="0 0 395.52 67.87534462301801" height="67.87534462301801" width="395.52"><g transform="matrix(1,0,0,1,0,0)"><svg width="395.52" viewBox="0.15 -38.35 226.32 38.84" height="67.87534462301801" data-palette-color="url(#dcc284e5-666e-423d-b090-f7d0a8f0c145)"></svg></g></svg></g><g transform="matrix(1,0,0,1,0,99.92282433746522)"><svg viewBox="0 0 395.52 73.43182930493596" height="73.43182930493596" width="395.52"><path d="M395.52 0l-12.239 36.716 12.239 36.716h-395.52l12.239-36.716-12.239-36.716z" opacity="1" fill="black"></path><g transform="matrix(1,0,0,1,75.54432000000001,16.0237398572236)"><svg width="244.43135999999996" viewBox="0.25 -37.7 227.07 38.45" height="41.38434959048876" data-palette-color="#000000"><path d="M14-5L16.15-1.2Q13.7 0.75 10.4 0.75L10.4 0.75Q6.95 0.75 5.15-1.23 3.35-3.2 3.35-6.6L3.35-6.6 3.35-22 0.25-22 0.25-26.45 3.35-26.45 3.35-32.3 9.5-33.05 9.5-26.45 14.5-26.45 13.9-22 9.5-22 9.5-6.6Q9.5-4.2 11.55-4.2L11.55-4.2Q12.2-4.2 12.7-4.38 13.2-4.55 14-5L14-5ZM30.35-27.1Q31.5-27.1 32.4-26.75L32.4-26.75 31.4-20.85Q30.4-21.1 29.55-21.1L29.55-21.1Q27.65-21.1 26.55-19.45 25.45-17.8 24.85-14.55L24.85-14.55 24.85 0 18.7 0 18.7-26.45 24.05-26.45 24.5-21.85Q26.35-27.1 30.35-27.1L30.35-27.1ZM52.15-6.4Q52.15-5.1 52.5-4.48 52.85-3.85 53.65-3.45L53.65-3.45 52.4 0.65Q50.34 0.4 49.12-0.45 47.9-1.3 47.3-3.05L47.3-3.05Q45 0.75 40.85 0.75L40.85 0.75Q37.55 0.75 35.6-1.48 33.65-3.7 33.65-7.4L33.65-7.4Q33.65-11.7 36.32-13.95 39-16.2 44.1-16.2L44.1-16.2 46.15-16.2 46.15-18.05Q46.15-20.55 45.27-21.58 44.4-22.6 42.45-22.6L42.45-22.6Q40.1-22.6 36.6-21.3L36.6-21.3 35.2-25.3Q37.2-26.2 39.35-26.68 41.5-27.15 43.45-27.15L43.45-27.15Q52.15-27.15 52.15-18.35L52.15-18.35 52.15-6.4ZM42.5-3.7Q44.9-3.7 46.15-7L46.15-7 46.15-12.55 44.7-12.55Q42.15-12.55 40.97-11.4 39.8-10.25 39.8-7.85L39.8-7.85Q39.8-5.8 40.5-4.75 41.2-3.7 42.5-3.7L42.5-3.7ZM67.44-27.15Q69.59-27.15 71.34-26.43 73.09-25.7 74.69-24.15L74.69-24.15 72.04-20.65Q70.94-21.55 69.97-21.98 68.99-22.4 67.84-22.4L67.84-22.4Q65.59-22.4 64.44-20.28 63.29-18.15 63.29-13.1L63.29-13.1Q63.29-8.2 64.47-6.2 65.64-4.2 67.84-4.2L67.84-4.2Q68.94-4.2 69.84-4.6 70.74-5 71.94-5.85L71.94-5.85 74.69-2.3Q71.49 0.75 67.54 0.75L67.54 0.75Q62.44 0.75 59.62-2.73 56.79-6.2 56.79-13L56.79-13Q56.79-17.4 58.09-20.6 59.39-23.8 61.82-25.48 64.24-27.15 67.44-27.15L67.44-27.15ZM77.74-37.05L83.89-37.7 83.89 0 77.74 0 77.74-37.05ZM91.24-26.45L97.24-26.45 90.24-14.75 97.84 0 91.24 0 84.14-14.45 91.24-26.45ZM124.44-18.3Q127.79-17.55 129.71-15.63 131.64-13.7 131.64-9.9L131.64-9.9Q131.64-4.9 128.26-2.45 124.89 0 119.09 0L119.09 0 110.39 0 110.39-34.55 117.94-34.55Q123.89-34.55 127.14-32.3 130.39-30.05 130.39-25.75L130.39-25.75Q130.39-22.85 128.76-20.95 127.14-19.05 124.44-18.3L124.44-18.3ZM118.59-29.85L116.74-29.85 116.74-20.3 118.89-20.3Q123.94-20.3 123.94-25.2L123.94-25.2Q123.94-27.65 122.66-28.75 121.39-29.85 118.59-29.85L118.59-29.85ZM119.14-4.8Q122.04-4.8 123.54-6.03 125.04-7.25 125.04-10.15L125.04-10.15Q125.04-13.05 123.64-14.43 122.24-15.8 119.29-15.8L119.29-15.8 116.74-15.8 116.74-4.8 119.14-4.8ZM154.48-13.85Q154.48-13.4 154.33-11.3L154.33-11.3 140.68-11.3Q140.88-7.2 142.11-5.58 143.33-3.95 145.58-3.95L145.58-3.95Q147.13-3.95 148.38-4.48 149.63-5 151.08-6.15L151.08-6.15 153.63-2.65Q150.13 0.75 145.23 0.75L145.23 0.75Q140.03 0.75 137.26-2.85 134.48-6.45 134.48-13L134.48-13Q134.48-19.55 137.13-23.35 139.78-27.15 144.63-27.15L144.63-27.15Q149.28-27.15 151.88-23.78 154.48-20.4 154.48-13.85L154.48-13.85ZM148.48-15.3L148.48-15.65Q148.48-19.4 147.58-21.13 146.68-22.85 144.68-22.85L144.68-22.85Q142.83-22.85 141.86-21.18 140.88-19.5 140.68-15.3L140.68-15.3 148.48-15.3ZM169.93-5L172.08-1.2Q169.63 0.75 166.33 0.75L166.33 0.75Q162.88 0.75 161.08-1.23 159.28-3.2 159.28-6.6L159.28-6.6 159.28-22 156.18-22 156.18-26.45 159.28-26.45 159.28-32.3 165.43-33.05 165.43-26.45 170.43-26.45 169.83-22 165.43-22 165.43-6.6Q165.43-4.2 167.48-4.2L167.48-4.2Q168.13-4.2 168.63-4.38 169.13-4.55 169.93-5L169.93-5ZM185.78-5L187.93-1.2Q185.48 0.75 182.18 0.75L182.18 0.75Q178.73 0.75 176.93-1.23 175.13-3.2 175.13-6.6L175.13-6.6 175.13-22 172.03-22 172.03-26.45 175.13-26.45 175.13-32.3 181.28-33.05 181.28-26.45 186.28-26.45 185.68-22 181.28-22 181.28-6.6Q181.28-4.2 183.33-4.2L183.33-4.2Q183.98-4.2 184.48-4.38 184.98-4.55 185.78-5L185.78-5ZM209.33-13.85Q209.33-13.4 209.18-11.3L209.18-11.3 195.53-11.3Q195.73-7.2 196.95-5.58 198.18-3.95 200.43-3.95L200.43-3.95Q201.98-3.95 203.23-4.48 204.48-5 205.93-6.15L205.93-6.15 208.48-2.65Q204.98 0.75 200.08 0.75L200.08 0.75Q194.88 0.75 192.1-2.85 189.33-6.45 189.33-13L189.33-13Q189.33-19.55 191.98-23.35 194.63-27.15 199.48-27.15L199.48-27.15Q204.13-27.15 206.73-23.78 209.33-20.4 209.33-13.85L209.33-13.85ZM203.33-15.3L203.33-15.65Q203.33-19.4 202.43-21.13 201.53-22.85 199.53-22.85L199.53-22.85Q197.68-22.85 196.7-21.18 195.73-19.5 195.53-15.3L195.53-15.3 203.33-15.3ZM225.27-27.1Q226.42-27.1 227.32-26.75L227.32-26.75 226.32-20.85Q225.32-21.1 224.47-21.1L224.47-21.1Q222.57-21.1 221.47-19.45 220.37-17.8 219.77-14.55L219.77-14.55 219.77 0 213.62 0 213.62-26.45 218.97-26.45 219.42-21.85Q221.27-27.1 225.27-27.1L225.27-27.1Z" opacity="1" transform="matrix(1,0,0,1,0,0)" fill="black" class="slogan-text-1" id="SvgjsPath5342"></path></svg></g></svg></g></svg></g></svg></g><g transform="matrix(1,0,0,1,411.54373985722356,0)"><svg viewBox="0 0 179.76614002294744 179.68209850034884" height="179.68209850034884" width="179.76614002294744"><g><svg xmlns="http://www.w3.org/2000/svg" xmlns:xlink="http://www.w3.org/1999/xlink" version="1.1" x="0" y="0" viewBox="0.7607695154586737 0.7749999999999999 30.439230484541326 30.425" enable-background="new 0 0 32 32" xml:space="preserve" height="179.68209850034884" width="179.76614002294744" class="icon-icon-0" data-fill-palette-color="accent" id="SvgjsSvg5341"><g fill="white"><g fill="white"><path fill="white" d="M1.5 31.2C1.3 31.2 1.1 31.1 1 31 0.8 30.8 0.7 30.6 0.8 30.3L4.5 11.2C4.6 10.9 4.8 10.6 5.1 10.6L14.7 9.3C14.9 9.3 15.2 9.3 15.3 9.5L22.5 16.7C22.7 16.9 22.7 17.1 22.7 17.3L21.4 26.9C21.4 27.2 21.1 27.5 20.8 27.5L1.6 31.2zM5.8 12.1L2.4 29.6 19.9 26.2 21.1 17.5 14.4 10.8z"></path></g><g fill="white"><rect x="5.2" y="19.8" transform="matrix(-0.7071 -0.7071 0.7071 -0.7071 -8.3465 48.7211)" fill="white" width="1.5" height="12.6"></rect></g><g fill="white"><path fill="white" d="M12 23.1C11.2 23.1 10.4 22.8 9.8 22.2S8.9 20.9 8.9 20C8.9 19.2 9.2 18.4 9.8 17.8 11 16.6 13 16.6 14.1 17.8 15.3 19 15.3 20.9 14.1 22.1 13.6 22.8 12.8 23.1 12 23.1M12 18.4C11.6 18.4 11.2 18.6 10.9 18.9S10.4 19.6 10.4 20 10.6 20.8 10.9 21.1C11.5 21.7 12.5 21.7 13.1 21.1S13.7 19.5 13.1 18.9C12.8 18.6 12.4 18.4 12 18.4"></path></g><g fill="white"><path fill="white" d="M23.8 18.7C22.9 18.7 22 18.3 21.4 17.7L14.3 10.6C13 9.3 13 7.1 14.3 5.8L19.1 1C19.4 0.7 19.9 0.7 20.2 1L31 11.8C31.1 11.9 31.2 12.1 31.2 12.3S31.1 12.7 31 12.8L26.1 17.7C25.5 18.4 24.7 18.7 23.8 18.7M19.7 2.6L15.4 6.9C14.7 7.6 14.7 8.9 15.4 9.6L22.5 16.7C23.2 17.4 24.5 17.4 25.2 16.7L29.5 12.4z"></path></g></g></svg></g></svg></g></svg></g><defs><mask></mask></defs><mask><g id="SvgjsG5340"><svg viewBox="0 0 395.52 120.18717430065583" height="120.18717430065583" width="395.52"><g><svg viewBox="0 0 591.309879880171 179.68209850034884" height="120.18717430065583" width="395.52"><g transform="matrix(1,0,0,1,0,3.1637224289738413)"><svg viewBox="0 0 395.52 173.35465364240116" height="173.35465364240116" width="395.52"><g id="SvgjsG5339"><svg viewBox="0 0 395.52 173.35465364240116" height="173.35465364240116" width="395.52" id="SvgjsSvg5338"><g><svg viewBox="0 0 395.52 67.87534462301801" height="67.87534462301801" width="395.52"><g transform="matrix(1,0,0,1,0,0)"><svg width="395.52" viewBox="0.15 -38.35 226.32 38.84" height="67.87534462301801" data-palette-color="url(#dcc284e5-666e-423d-b090-f7d0a8f0c145)"><path d="M16.38 0.02L11.62 0.02 11.62-31.98 0.15-31.98 0.15-35.55 27.91-35.55 27.91-31.98 16.38-31.98 16.38 0.02ZM36.67 0L32.25 0 32.25-26.42 35.84-26.42 36.28-20.92Q37.64-24.19 39.65-25.46 41.65-26.73 43.89-26.73L43.89-26.73Q44.43-26.73 44.89-26.71 45.36-26.68 45.82-26.61L45.82-26.61 45.48-23.1Q45.24-23.1 44.99-23.11 44.75-23.12 44.48-23.12L44.48-23.12Q41.84-23.12 40.11-22.02 38.38-20.92 37.52-19.08 36.67-17.24 36.67-14.99L36.67-14.99 36.67 0ZM57.98 0.49L57.98 0.49Q54.19 0.49 51.83-1.42 49.46-3.32 49.46-7.18L49.46-7.18Q49.46-8.94 50.08-10.3 50.7-11.67 51.97-12.61 53.24-13.55 55.24-14.04 57.25-14.53 59.98-14.53L59.98-14.53 65.94-14.53 65.94-17.58Q65.94-20.78 64.5-22.2 63.06-23.63 60.15-23.63L60.15-23.63Q58.27-23.63 55.92-23.03 53.56-22.44 51.68-21.14L51.68-21.14 50.39-24.51Q51.73-25.37 53.35-25.92 54.98-26.46 56.75-26.73 58.52-27 60.27-27L60.27-27Q63.25-27 65.52-26.05 67.79-25.1 69.07-22.95 70.36-20.8 70.36-17.21L70.36-17.21 70.36 0 66.65 0 66.33-3.25Q65.28-2 64.03-1.17 62.79-0.34 61.29 0.07 59.79 0.49 57.98 0.49ZM58.66-2.66L58.66-2.66Q61.01-2.66 62.86-3.64 64.72-4.61 65.94-6.18L65.94-6.18 65.94-11.72 60.79-11.72Q58.1-11.72 56.54-11.21 54.98-10.69 54.33-9.68 53.68-8.67 53.68-7.13L53.68-7.13Q53.68-4.64 55.13-3.65 56.59-2.66 58.66-2.66ZM88.93 0.49L88.93 0.49Q85.27 0.49 82.57-1.2 79.88-2.88 78.4-5.97 76.92-9.06 76.92-13.26L76.92-13.26Q76.92-17.48 78.4-20.56 79.88-23.63 82.57-25.32 85.27-27 88.93-27L88.93-27Q91.84-27 93.74-26.16 95.65-25.32 96.77-24.02 97.89-22.73 98.45-21.39L98.45-21.39 95.7-19.8 95.38-19.8Q94.47-21.46 93.05-22.56 91.62-23.66 89.13-23.66L89.13-23.66Q86.61-23.66 84.9-22.42 83.2-21.19 82.34-18.86 81.49-16.53 81.49-13.26L81.49-13.26Q81.49-10.01 82.34-7.68 83.2-5.35 84.89-4.1 86.59-2.86 89.13-2.86L89.13-2.86Q91.62-2.86 93.03-3.92 94.45-4.98 95.35-6.64L95.35-6.64 95.67-6.64 98.45-5.13Q97.89-3.78 96.77-2.49 95.65-1.2 93.74-0.35 91.84 0.49 88.93 0.49ZM109.17 0L104.73 0 104.73-37.6 109.17-38.09 109.17-18.68 109.02-13.48 121.08-26.42 126.11-26.42 126.11-25.85 115.27-14.43 126.89-0.61 126.89 0 122.13 0 112.12-12.3 109.17-9.77 109.17 0ZM139.25 0.02L135.27 0.02 128.04-26.42 132.21-26.42 137.49-5.81 143.59-26.42 148.23-26.42 154.72-5.74 159.63-26.42 163.68-26.42 156.8 0.02 152.8 0.02 146.01-22.14 139.25 0.02ZM173.18 0L168.74 0 168.74-26.42 173.18-26.42 173.18 0ZM170.96-32.47L170.96-32.47Q169.47-32.47 168.66-33.25 167.86-34.03 167.86-35.45L167.86-35.45Q167.86-36.82 168.66-37.59 169.47-38.35 170.96-38.35L170.96-38.35Q172.45-38.35 173.25-37.59 174.06-36.82 174.06-35.45L174.06-35.45Q174.06-34.03 173.25-33.25 172.45-32.47 170.96-32.47ZM189.46 0.49L189.46 0.49Q186.29 0.49 183.56-0.57 180.84-1.64 179.21-3.69L179.21-3.69 181.53-5.93 181.87-5.93Q183.45-4.1 185.53-3.42 187.6-2.73 189.46-2.73L189.46-2.73Q192-2.73 193.39-3.91 194.78-5.08 194.78-7.5L194.78-7.5Q194.78-8.35 194.46-9.05 194.15-9.74 193.17-10.36 192.19-10.99 190.17-11.62L190.17-11.62 187.19-12.55Q183.99-13.55 182.45-14.65 180.92-15.75 180.44-17.04 179.96-18.33 179.96-19.9L179.96-19.9Q179.96-23.19 182.54-25.1 185.11-27 189.53-27L189.53-27Q191.68-27 193.37-26.5 195.05-26 196.3-25.13 197.54-24.27 198.32-23.14L198.32-23.14 195.91-21.17 195.66-21.17Q194.76-22.24 193.22-22.95 191.68-23.66 189.56-23.66L189.56-23.66Q187.7-23.66 186.55-23.21 185.41-22.75 184.87-21.9 184.33-21.04 184.33-19.87L184.33-19.87Q184.33-18.53 185.13-17.72 185.92-16.92 188.63-16.06L188.63-16.06 191.56-15.14Q194.73-14.11 196.28-12.94 197.83-11.77 198.33-10.46 198.84-9.16 198.84-7.67L198.84-7.67Q198.84-4.79 197.57-2.99 196.3-1.2 194.17-0.35 192.05 0.49 189.46 0.49ZM216.7 0.49L216.7 0.49Q213.14 0.49 210.27-1.15 207.4-2.78 205.73-5.85 204.06-8.91 204.06-13.13L204.06-13.13Q204.06-17.53 205.69-20.63 207.33-23.73 210.09-25.37 212.85-27 216.17-27L216.17-27Q219.41-27 221.71-25.56 224-24.12 225.24-21.46 226.47-18.8 226.47-15.14L226.47-15.14Q226.47-14.77 226.41-14.14 226.35-13.5 226.3-12.99 226.25-12.48 226.25-12.43L226.25-12.43 208.6-12.43Q208.79-9.06 209.95-6.93 211.11-4.81 213-3.81 214.9-2.81 217.27-2.81L217.27-2.81Q219.54-2.81 221.15-3.45 222.76-4.1 224.39-5.03L224.39-5.03 224.71-5.03 225.74-2.12Q224.1-1 221.79-0.26 219.49 0.49 216.7 0.49ZM208.67-15.31L208.67-15.31 222.66-15.31Q222.61-19.29 221.09-21.5 219.56-23.71 216.39-23.71L216.39-23.71Q213.19-23.71 211.1-21.45 209.01-19.19 208.67-15.31Z" opacity="1" transform="matrix(1,0,0,1,0,0)" fill="black" class="wordmark-text-0" id="SvgjsPath5337"></path></svg></g></svg></g><g transform="matrix(1,0,0,1,0,99.92282433746522)"><svg viewBox="0 0 395.52 73.43182930493596" height="73.43182930493596" width="395.52"><path d="M395.52 0l-12.239 36.716 12.239 36.716h-395.52l12.239-36.716-12.239-36.716z" opacity="1" fill="black"></path><g transform="matrix(1,0,0,1,75.54432000000001,16.0237398572236)"><svg width="244.43135999999996" viewBox="0.25 -37.7 227.07 38.45" height="41.38434959048876" data-palette-color="#000000"><path d="M14-5L16.15-1.2Q13.7 0.75 10.4 0.75L10.4 0.75Q6.95 0.75 5.15-1.23 3.35-3.2 3.35-6.6L3.35-6.6 3.35-22 0.25-22 0.25-26.45 3.35-26.45 3.35-32.3 9.5-33.05 9.5-26.45 14.5-26.45 13.9-22 9.5-22 9.5-6.6Q9.5-4.2 11.55-4.2L11.55-4.2Q12.2-4.2 12.7-4.38 13.2-4.55 14-5L14-5ZM30.35-27.1Q31.5-27.1 32.4-26.75L32.4-26.75 31.4-20.85Q30.4-21.1 29.55-21.1L29.55-21.1Q27.65-21.1 26.55-19.45 25.45-17.8 24.85-14.55L24.85-14.55 24.85 0 18.7 0 18.7-26.45 24.05-26.45 24.5-21.85Q26.35-27.1 30.35-27.1L30.35-27.1ZM52.15-6.4Q52.15-5.1 52.5-4.48 52.85-3.85 53.65-3.45L53.65-3.45 52.4 0.65Q50.34 0.4 49.12-0.45 47.9-1.3 47.3-3.05L47.3-3.05Q45 0.75 40.85 0.75L40.85 0.75Q37.55 0.75 35.6-1.48 33.65-3.7 33.65-7.4L33.65-7.4Q33.65-11.7 36.32-13.95 39-16.2 44.1-16.2L44.1-16.2 46.15-16.2 46.15-18.05Q46.15-20.55 45.27-21.58 44.4-22.6 42.45-22.6L42.45-22.6Q40.1-22.6 36.6-21.3L36.6-21.3 35.2-25.3Q37.2-26.2 39.35-26.68 41.5-27.15 43.45-27.15L43.45-27.15Q52.15-27.15 52.15-18.35L52.15-18.35 52.15-6.4ZM42.5-3.7Q44.9-3.7 46.15-7L46.15-7 46.15-12.55 44.7-12.55Q42.15-12.55 40.97-11.4 39.8-10.25 39.8-7.85L39.8-7.85Q39.8-5.8 40.5-4.75 41.2-3.7 42.5-3.7L42.5-3.7ZM67.44-27.15Q69.59-27.15 71.34-26.43 73.09-25.7 74.69-24.15L74.69-24.15 72.04-20.65Q70.94-21.55 69.97-21.98 68.99-22.4 67.84-22.4L67.84-22.4Q65.59-22.4 64.44-20.28 63.29-18.15 63.29-13.1L63.29-13.1Q63.29-8.2 64.47-6.2 65.64-4.2 67.84-4.2L67.84-4.2Q68.94-4.2 69.84-4.6 70.74-5 71.94-5.85L71.94-5.85 74.69-2.3Q71.49 0.75 67.54 0.75L67.54 0.75Q62.44 0.75 59.62-2.73 56.79-6.2 56.79-13L56.79-13Q56.79-17.4 58.09-20.6 59.39-23.8 61.82-25.48 64.24-27.15 67.44-27.15L67.44-27.15ZM77.74-37.05L83.89-37.7 83.89 0 77.74 0 77.74-37.05ZM91.24-26.45L97.24-26.45 90.24-14.75 97.84 0 91.24 0 84.14-14.45 91.24-26.45ZM124.44-18.3Q127.79-17.55 129.71-15.63 131.64-13.7 131.64-9.9L131.64-9.9Q131.64-4.9 128.26-2.45 124.89 0 119.09 0L119.09 0 110.39 0 110.39-34.55 117.94-34.55Q123.89-34.55 127.14-32.3 130.39-30.05 130.39-25.75L130.39-25.75Q130.39-22.85 128.76-20.95 127.14-19.05 124.44-18.3L124.44-18.3ZM118.59-29.85L116.74-29.85 116.74-20.3 118.89-20.3Q123.94-20.3 123.94-25.2L123.94-25.2Q123.94-27.65 122.66-28.75 121.39-29.85 118.59-29.85L118.59-29.85ZM119.14-4.8Q122.04-4.8 123.54-6.03 125.04-7.25 125.04-10.15L125.04-10.15Q125.04-13.05 123.64-14.43 122.24-15.8 119.29-15.8L119.29-15.8 116.74-15.8 116.74-4.8 119.14-4.8ZM154.48-13.85Q154.48-13.4 154.33-11.3L154.33-11.3 140.68-11.3Q140.88-7.2 142.11-5.58 143.33-3.95 145.58-3.95L145.58-3.95Q147.13-3.95 148.38-4.48 149.63-5 151.08-6.15L151.08-6.15 153.63-2.65Q150.13 0.75 145.23 0.75L145.23 0.75Q140.03 0.75 137.26-2.85 134.48-6.45 134.48-13L134.48-13Q134.48-19.55 137.13-23.35 139.78-27.15 144.63-27.15L144.63-27.15Q149.28-27.15 151.88-23.78 154.48-20.4 154.48-13.85L154.48-13.85ZM148.48-15.3L148.48-15.65Q148.48-19.4 147.58-21.13 146.68-22.85 144.68-22.85L144.68-22.85Q142.83-22.85 141.86-21.18 140.88-19.5 140.68-15.3L140.68-15.3 148.48-15.3ZM169.93-5L172.08-1.2Q169.63 0.75 166.33 0.75L166.33 0.75Q162.88 0.75 161.08-1.23 159.28-3.2 159.28-6.6L159.28-6.6 159.28-22 156.18-22 156.18-26.45 159.28-26.45 159.28-32.3 165.43-33.05 165.43-26.45 170.43-26.45 169.83-22 165.43-22 165.43-6.6Q165.43-4.2 167.48-4.2L167.48-4.2Q168.13-4.2 168.63-4.38 169.13-4.55 169.93-5L169.93-5ZM185.78-5L187.93-1.2Q185.48 0.75 182.18 0.75L182.18 0.75Q178.73 0.75 176.93-1.23 175.13-3.2 175.13-6.6L175.13-6.6 175.13-22 172.03-22 172.03-26.45 175.13-26.45 175.13-32.3 181.28-33.05 181.28-26.45 186.28-26.45 185.68-22 181.28-22 181.28-6.6Q181.28-4.2 183.33-4.2L183.33-4.2Q183.98-4.2 184.48-4.38 184.98-4.55 185.78-5L185.78-5ZM209.33-13.85Q209.33-13.4 209.18-11.3L209.18-11.3 195.53-11.3Q195.73-7.2 196.95-5.58 198.18-3.95 200.43-3.95L200.43-3.95Q201.98-3.95 203.23-4.48 204.48-5 205.93-6.15L205.93-6.15 208.48-2.65Q204.98 0.75 200.08 0.75L200.08 0.75Q194.88 0.75 192.1-2.85 189.33-6.45 189.33-13L189.33-13Q189.33-19.55 191.98-23.35 194.63-27.15 199.48-27.15L199.48-27.15Q204.13-27.15 206.73-23.78 209.33-20.4 209.33-13.85L209.33-13.85ZM203.33-15.3L203.33-15.65Q203.33-19.4 202.43-21.13 201.53-22.85 199.53-22.85L199.53-22.85Q197.68-22.85 196.7-21.18 195.73-19.5 195.53-15.3L195.53-15.3 203.33-15.3ZM225.27-27.1Q226.42-27.1 227.32-26.75L227.32-26.75 226.32-20.85Q225.32-21.1 224.47-21.1L224.47-21.1Q222.57-21.1 221.47-19.45 220.37-17.8 219.77-14.55L219.77-14.55 219.77 0 213.62 0 213.62-26.45 218.97-26.45 219.42-21.85Q221.27-27.1 225.27-27.1L225.27-27.1Z" opacity="1" transform="matrix(1,0,0,1,0,0)" fill="black" class="slogan-text-1" id="SvgjsPath5336"></path></svg></g></svg></g></svg></g></svg></g><g transform="matrix(1,0,0,1,411.54373985722356,0)"><svg viewBox="0 0 179.76614002294744 179.68209850034884" height="179.68209850034884" width="179.76614002294744"><g><svg xmlns="http://www.w3.org/2000/svg" xmlns:xlink="http://www.w3.org/1999/xlink" version="1.1" x="0" y="0" viewBox="0.7607695154586737 0.7749999999999999 30.439230484541326 30.425" enable-background="new 0 0 32 32" xml:space="preserve" height="179.68209850034884" width="179.76614002294744" class="icon-icon-0" data-fill-palette-color="accent" id="SvgjsSvg5335"><g fill="black"><g fill="black"><path fill="black" d="M1.5 31.2C1.3 31.2 1.1 31.1 1 31 0.8 30.8 0.7 30.6 0.8 30.3L4.5 11.2C4.6 10.9 4.8 10.6 5.1 10.6L14.7 9.3C14.9 9.3 15.2 9.3 15.3 9.5L22.5 16.7C22.7 16.9 22.7 17.1 22.7 17.3L21.4 26.9C21.4 27.2 21.1 27.5 20.8 27.5L1.6 31.2zM5.8 12.1L2.4 29.6 19.9 26.2 21.1 17.5 14.4 10.8z"></path></g><g fill="black"><rect x="5.2" y="19.8" transform="matrix(-0.7071 -0.7071 0.7071 -0.7071 -8.3465 48.7211)" fill="black" width="1.5" height="12.6"></rect></g><g fill="black"><path fill="black" d="M12 23.1C11.2 23.1 10.4 22.8 9.8 22.2S8.9 20.9 8.9 20C8.9 19.2 9.2 18.4 9.8 17.8 11 16.6 13 16.6 14.1 17.8 15.3 19 15.3 20.9 14.1 22.1 13.6 22.8 12.8 23.1 12 23.1M12 18.4C11.6 18.4 11.2 18.6 10.9 18.9S10.4 19.6 10.4 20 10.6 20.8 10.9 21.1C11.5 21.7 12.5 21.7 13.1 21.1S13.7 19.5 13.1 18.9C12.8 18.6 12.4 18.4 12 18.4"></path></g><g fill="black"><path fill="black" d="M23.8 18.7C22.9 18.7 22 18.3 21.4 17.7L14.3 10.6C13 9.3 13 7.1 14.3 5.8L19.1 1C19.4 0.7 19.9 0.7 20.2 1L31 11.8C31.1 11.9 31.2 12.1 31.2 12.3S31.1 12.7 31 12.8L26.1 17.7C25.5 18.4 24.7 18.7 23.8 18.7M19.7 2.6L15.4 6.9C14.7 7.6 14.7 8.9 15.4 9.6L22.5 16.7C23.2 17.4 24.5 17.4 25.2 16.7L29.5 12.4z"></path></g></g></svg></g></svg></g></svg></g><defs><mask></mask></defs></svg><rect width="395.52" height="120.18717430065583" fill="black" stroke="none" visibility="hidden"></rect></g></mask></svg><rect width="395.52" height="120.18717430065583" fill="black" stroke="none" visibility="hidden"></rect></g></mask><linearGradient x1="0" x2="1" y1="0.578" y2="0.595" id="819f9d45-9116-47c9-b807-03d5edab588c"><stop stop-color="#6ee2f5" offset="0"></stop><stop stop-color="#6454f0" offset="1"></stop></linearGradient><rect width="395.52" height="120.18717430065583" fill="#000000" mask="url(#ee30cf10-faa1-46c9-a73d-e8a2d3b80ffc)" data-fill-palette-color="accent"></rect><mask id="eaec1242-53e2-4f75-ae7f-943b8806f298"><g id="SvgjsG5367"><svg viewBox="0 0 395.52 120.18717430065583" height="120.18717430065583" width="395.52"><g><svg viewBox="0 0 591.309879880171 179.68209850034884" height="120.18717430065583" width="395.52"><g transform="matrix(1,0,0,1,0,3.1637224289738413)"><svg viewBox="0 0 395.52 173.35465364240116" height="173.35465364240116" width="395.52"><g id="SvgjsG5366"><svg viewBox="0 0 395.52 173.35465364240116" height="173.35465364240116" width="395.52" id="SvgjsSvg5365"><g><svg viewBox="0 0 395.52 67.87534462301801" height="67.87534462301801" width="395.52"><g transform="matrix(1,0,0,1,0,0)"><svg width="395.52" viewBox="0.15 -38.35 226.32 38.84" height="67.87534462301801" data-palette-color="url(#dcc284e5-666e-423d-b090-f7d0a8f0c145)"></svg></g></svg></g><g transform="matrix(1,0,0,1,0,99.92282433746522)"><svg viewBox="0 0 395.52 73.43182930493596" height="73.43182930493596" width="395.52"><path d="M395.52 0l-12.239 36.716 12.239 36.716h-395.52l12.239-36.716-12.239-36.716z" opacity="1" fill="white"></path><g transform="matrix(1,0,0,1,75.54432000000001,16.0237398572236)"><svg width="244.43135999999996" viewBox="0.25 -37.7 227.07 38.45" height="41.38434959048876" data-palette-color="#000000"><path d="M14-5L16.15-1.2Q13.7 0.75 10.4 0.75L10.4 0.75Q6.95 0.75 5.15-1.23 3.35-3.2 3.35-6.6L3.35-6.6 3.35-22 0.25-22 0.25-26.45 3.35-26.45 3.35-32.3 9.5-33.05 9.5-26.45 14.5-26.45 13.9-22 9.5-22 9.5-6.6Q9.5-4.2 11.55-4.2L11.55-4.2Q12.2-4.2 12.7-4.38 13.2-4.55 14-5L14-5ZM30.35-27.1Q31.5-27.1 32.4-26.75L32.4-26.75 31.4-20.85Q30.4-21.1 29.55-21.1L29.55-21.1Q27.65-21.1 26.55-19.45 25.45-17.8 24.85-14.55L24.85-14.55 24.85 0 18.7 0 18.7-26.45 24.05-26.45 24.5-21.85Q26.35-27.1 30.35-27.1L30.35-27.1ZM52.15-6.4Q52.15-5.1 52.5-4.48 52.85-3.85 53.65-3.45L53.65-3.45 52.4 0.65Q50.34 0.4 49.12-0.45 47.9-1.3 47.3-3.05L47.3-3.05Q45 0.75 40.85 0.75L40.85 0.75Q37.55 0.75 35.6-1.48 33.65-3.7 33.65-7.4L33.65-7.4Q33.65-11.7 36.32-13.95 39-16.2 44.1-16.2L44.1-16.2 46.15-16.2 46.15-18.05Q46.15-20.55 45.27-21.58 44.4-22.6 42.45-22.6L42.45-22.6Q40.1-22.6 36.6-21.3L36.6-21.3 35.2-25.3Q37.2-26.2 39.35-26.68 41.5-27.15 43.45-27.15L43.45-27.15Q52.15-27.15 52.15-18.35L52.15-18.35 52.15-6.4ZM42.5-3.7Q44.9-3.7 46.15-7L46.15-7 46.15-12.55 44.7-12.55Q42.15-12.55 40.97-11.4 39.8-10.25 39.8-7.85L39.8-7.85Q39.8-5.8 40.5-4.75 41.2-3.7 42.5-3.7L42.5-3.7ZM67.44-27.15Q69.59-27.15 71.34-26.43 73.09-25.7 74.69-24.15L74.69-24.15 72.04-20.65Q70.94-21.55 69.97-21.98 68.99-22.4 67.84-22.4L67.84-22.4Q65.59-22.4 64.44-20.28 63.29-18.15 63.29-13.1L63.29-13.1Q63.29-8.2 64.47-6.2 65.64-4.2 67.84-4.2L67.84-4.2Q68.94-4.2 69.84-4.6 70.74-5 71.94-5.85L71.94-5.85 74.69-2.3Q71.49 0.75 67.54 0.75L67.54 0.75Q62.44 0.75 59.62-2.73 56.79-6.2 56.79-13L56.79-13Q56.79-17.4 58.09-20.6 59.39-23.8 61.82-25.48 64.24-27.15 67.44-27.15L67.44-27.15ZM77.74-37.05L83.89-37.7 83.89 0 77.74 0 77.74-37.05ZM91.24-26.45L97.24-26.45 90.24-14.75 97.84 0 91.24 0 84.14-14.45 91.24-26.45ZM124.44-18.3Q127.79-17.55 129.71-15.63 131.64-13.7 131.64-9.9L131.64-9.9Q131.64-4.9 128.26-2.45 124.89 0 119.09 0L119.09 0 110.39 0 110.39-34.55 117.94-34.55Q123.89-34.55 127.14-32.3 130.39-30.05 130.39-25.75L130.39-25.75Q130.39-22.85 128.76-20.95 127.14-19.05 124.44-18.3L124.44-18.3ZM118.59-29.85L116.74-29.85 116.74-20.3 118.89-20.3Q123.94-20.3 123.94-25.2L123.94-25.2Q123.94-27.65 122.66-28.75 121.39-29.85 118.59-29.85L118.59-29.85ZM119.14-4.8Q122.04-4.8 123.54-6.03 125.04-7.25 125.04-10.15L125.04-10.15Q125.04-13.05 123.64-14.43 122.24-15.8 119.29-15.8L119.29-15.8 116.74-15.8 116.74-4.8 119.14-4.8ZM154.48-13.85Q154.48-13.4 154.33-11.3L154.33-11.3 140.68-11.3Q140.88-7.2 142.11-5.58 143.33-3.95 145.58-3.95L145.58-3.95Q147.13-3.95 148.38-4.48 149.63-5 151.08-6.15L151.08-6.15 153.63-2.65Q150.13 0.75 145.23 0.75L145.23 0.75Q140.03 0.75 137.26-2.85 134.48-6.45 134.48-13L134.48-13Q134.48-19.55 137.13-23.35 139.78-27.15 144.63-27.15L144.63-27.15Q149.28-27.15 151.88-23.78 154.48-20.4 154.48-13.85L154.48-13.85ZM148.48-15.3L148.48-15.65Q148.48-19.4 147.58-21.13 146.68-22.85 144.68-22.85L144.68-22.85Q142.83-22.85 141.86-21.18 140.88-19.5 140.68-15.3L140.68-15.3 148.48-15.3ZM169.93-5L172.08-1.2Q169.63 0.75 166.33 0.75L166.33 0.75Q162.88 0.75 161.08-1.23 159.28-3.2 159.28-6.6L159.28-6.6 159.28-22 156.18-22 156.18-26.45 159.28-26.45 159.28-32.3 165.43-33.05 165.43-26.45 170.43-26.45 169.83-22 165.43-22 165.43-6.6Q165.43-4.2 167.48-4.2L167.48-4.2Q168.13-4.2 168.63-4.38 169.13-4.55 169.93-5L169.93-5ZM185.78-5L187.93-1.2Q185.48 0.75 182.18 0.75L182.18 0.75Q178.73 0.75 176.93-1.23 175.13-3.2 175.13-6.6L175.13-6.6 175.13-22 172.03-22 172.03-26.45 175.13-26.45 175.13-32.3 181.28-33.05 181.28-26.45 186.28-26.45 185.68-22 181.28-22 181.28-6.6Q181.28-4.2 183.33-4.2L183.33-4.2Q183.98-4.2 184.48-4.38 184.98-4.55 185.78-5L185.78-5ZM209.33-13.85Q209.33-13.4 209.18-11.3L209.18-11.3 195.53-11.3Q195.73-7.2 196.95-5.58 198.18-3.95 200.43-3.95L200.43-3.95Q201.98-3.95 203.23-4.48 204.48-5 205.93-6.15L205.93-6.15 208.48-2.65Q204.98 0.75 200.08 0.75L200.08 0.75Q194.88 0.75 192.1-2.85 189.33-6.45 189.33-13L189.33-13Q189.33-19.55 191.98-23.35 194.63-27.15 199.48-27.15L199.48-27.15Q204.13-27.15 206.73-23.78 209.33-20.4 209.33-13.85L209.33-13.85ZM203.33-15.3L203.33-15.65Q203.33-19.4 202.43-21.13 201.53-22.85 199.53-22.85L199.53-22.85Q197.68-22.85 196.7-21.18 195.73-19.5 195.53-15.3L195.53-15.3 203.33-15.3ZM225.27-27.1Q226.42-27.1 227.32-26.75L227.32-26.75 226.32-20.85Q225.32-21.1 224.47-21.1L224.47-21.1Q222.57-21.1 221.47-19.45 220.37-17.8 219.77-14.55L219.77-14.55 219.77 0 213.62 0 213.62-26.45 218.97-26.45 219.42-21.85Q221.27-27.1 225.27-27.1L225.27-27.1Z" opacity="1" transform="matrix(1,0,0,1,0,0)" fill="black" class="slogan-text-1" id="SvgjsPath5364"></path></svg></g></svg></g></svg></g></svg></g><g transform="matrix(1,0,0,1,411.54373985722356,0)"><svg viewBox="0 0 179.76614002294744 179.68209850034884" height="179.68209850034884" width="179.76614002294744"><g><svg xmlns="http://www.w3.org/2000/svg" xmlns:xlink="http://www.w3.org/1999/xlink" version="1.1" x="0" y="0" viewBox="0.7607695154586737 0.7749999999999999 30.439230484541326 30.425" enable-background="new 0 0 32 32" xml:space="preserve" height="179.68209850034884" width="179.76614002294744" class="icon-icon-0" data-fill-palette-color="accent" id="SvgjsSvg5363"></svg></g></svg></g></svg></g><defs><mask></mask></defs><mask><g id="SvgjsG5362"><svg viewBox="0 0 395.52 120.18717430065583" height="120.18717430065583" width="395.52"><g><svg viewBox="0 0 591.309879880171 179.68209850034884" height="120.18717430065583" width="395.52"><g transform="matrix(1,0,0,1,0,3.1637224289738413)"><svg viewBox="0 0 395.52 173.35465364240116" height="173.35465364240116" width="395.52"><g id="SvgjsG5361"><svg viewBox="0 0 395.52 173.35465364240116" height="173.35465364240116" width="395.52" id="SvgjsSvg5360"><g><svg viewBox="0 0 395.52 67.87534462301801" height="67.87534462301801" width="395.52"><g transform="matrix(1,0,0,1,0,0)"><svg width="395.52" viewBox="0.15 -38.35 226.32 38.84" height="67.87534462301801" data-palette-color="url(#dcc284e5-666e-423d-b090-f7d0a8f0c145)"><path d="M16.38 0.02L11.62 0.02 11.62-31.98 0.15-31.98 0.15-35.55 27.91-35.55 27.91-31.98 16.38-31.98 16.38 0.02ZM36.67 0L32.25 0 32.25-26.42 35.84-26.42 36.28-20.92Q37.64-24.19 39.65-25.46 41.65-26.73 43.89-26.73L43.89-26.73Q44.43-26.73 44.89-26.71 45.36-26.68 45.82-26.61L45.82-26.61 45.48-23.1Q45.24-23.1 44.99-23.11 44.75-23.12 44.48-23.12L44.48-23.12Q41.84-23.12 40.11-22.02 38.38-20.92 37.52-19.08 36.67-17.24 36.67-14.99L36.67-14.99 36.67 0ZM57.98 0.49L57.98 0.49Q54.19 0.49 51.83-1.42 49.46-3.32 49.46-7.18L49.46-7.18Q49.46-8.94 50.08-10.3 50.7-11.67 51.97-12.61 53.24-13.55 55.24-14.04 57.25-14.53 59.98-14.53L59.98-14.53 65.94-14.53 65.94-17.58Q65.94-20.78 64.5-22.2 63.06-23.63 60.15-23.63L60.15-23.63Q58.27-23.63 55.92-23.03 53.56-22.44 51.68-21.14L51.68-21.14 50.39-24.51Q51.73-25.37 53.35-25.92 54.98-26.46 56.75-26.73 58.52-27 60.27-27L60.27-27Q63.25-27 65.52-26.05 67.79-25.1 69.07-22.95 70.36-20.8 70.36-17.21L70.36-17.21 70.36 0 66.65 0 66.33-3.25Q65.28-2 64.03-1.17 62.79-0.34 61.29 0.07 59.79 0.49 57.98 0.49ZM58.66-2.66L58.66-2.66Q61.01-2.66 62.86-3.64 64.72-4.61 65.94-6.18L65.94-6.18 65.94-11.72 60.79-11.72Q58.1-11.72 56.54-11.21 54.98-10.69 54.33-9.68 53.68-8.67 53.68-7.13L53.68-7.13Q53.68-4.64 55.13-3.65 56.59-2.66 58.66-2.66ZM88.93 0.49L88.93 0.49Q85.27 0.49 82.57-1.2 79.88-2.88 78.4-5.97 76.92-9.06 76.92-13.26L76.92-13.26Q76.92-17.48 78.4-20.56 79.88-23.63 82.57-25.32 85.27-27 88.93-27L88.93-27Q91.84-27 93.74-26.16 95.65-25.32 96.77-24.02 97.89-22.73 98.45-21.39L98.45-21.39 95.7-19.8 95.38-19.8Q94.47-21.46 93.05-22.56 91.62-23.66 89.13-23.66L89.13-23.66Q86.61-23.66 84.9-22.42 83.2-21.19 82.34-18.86 81.49-16.53 81.49-13.26L81.49-13.26Q81.49-10.01 82.34-7.68 83.2-5.35 84.89-4.1 86.59-2.86 89.13-2.86L89.13-2.86Q91.62-2.86 93.03-3.92 94.45-4.98 95.35-6.64L95.35-6.64 95.67-6.64 98.45-5.13Q97.89-3.78 96.77-2.49 95.65-1.2 93.74-0.35 91.84 0.49 88.93 0.49ZM109.17 0L104.73 0 104.73-37.6 109.17-38.09 109.17-18.68 109.02-13.48 121.08-26.42 126.11-26.42 126.11-25.85 115.27-14.43 126.89-0.61 126.89 0 122.13 0 112.12-12.3 109.17-9.77 109.17 0ZM139.25 0.02L135.27 0.02 128.04-26.42 132.21-26.42 137.49-5.81 143.59-26.42 148.23-26.42 154.72-5.74 159.63-26.42 163.68-26.42 156.8 0.02 152.8 0.02 146.01-22.14 139.25 0.02ZM173.18 0L168.74 0 168.74-26.42 173.18-26.42 173.18 0ZM170.96-32.47L170.96-32.47Q169.47-32.47 168.66-33.25 167.86-34.03 167.86-35.45L167.86-35.45Q167.86-36.82 168.66-37.59 169.47-38.35 170.96-38.35L170.96-38.35Q172.45-38.35 173.25-37.59 174.06-36.82 174.06-35.45L174.06-35.45Q174.06-34.03 173.25-33.25 172.45-32.47 170.96-32.47ZM189.46 0.49L189.46 0.49Q186.29 0.49 183.56-0.57 180.84-1.64 179.21-3.69L179.21-3.69 181.53-5.93 181.87-5.93Q183.45-4.1 185.53-3.42 187.6-2.73 189.46-2.73L189.46-2.73Q192-2.73 193.39-3.91 194.78-5.08 194.78-7.5L194.78-7.5Q194.78-8.35 194.46-9.05 194.15-9.74 193.17-10.36 192.19-10.99 190.17-11.62L190.17-11.62 187.19-12.55Q183.99-13.55 182.45-14.65 180.92-15.75 180.44-17.04 179.96-18.33 179.96-19.9L179.96-19.9Q179.96-23.19 182.54-25.1 185.11-27 189.53-27L189.53-27Q191.68-27 193.37-26.5 195.05-26 196.3-25.13 197.54-24.27 198.32-23.14L198.32-23.14 195.91-21.17 195.66-21.17Q194.76-22.24 193.22-22.95 191.68-23.66 189.56-23.66L189.56-23.66Q187.7-23.66 186.55-23.21 185.41-22.75 184.87-21.9 184.33-21.04 184.33-19.87L184.33-19.87Q184.33-18.53 185.13-17.72 185.92-16.92 188.63-16.06L188.63-16.06 191.56-15.14Q194.73-14.11 196.28-12.94 197.83-11.77 198.33-10.46 198.84-9.16 198.84-7.67L198.84-7.67Q198.84-4.79 197.57-2.99 196.3-1.2 194.17-0.35 192.05 0.49 189.46 0.49ZM216.7 0.49L216.7 0.49Q213.14 0.49 210.27-1.15 207.4-2.78 205.73-5.85 204.06-8.91 204.06-13.13L204.06-13.13Q204.06-17.53 205.69-20.63 207.33-23.73 210.09-25.37 212.85-27 216.17-27L216.17-27Q219.41-27 221.71-25.56 224-24.12 225.24-21.46 226.47-18.8 226.47-15.14L226.47-15.14Q226.47-14.77 226.41-14.14 226.35-13.5 226.3-12.99 226.25-12.48 226.25-12.43L226.25-12.43 208.6-12.43Q208.79-9.06 209.95-6.93 211.11-4.81 213-3.81 214.9-2.81 217.27-2.81L217.27-2.81Q219.54-2.81 221.15-3.45 222.76-4.1 224.39-5.03L224.39-5.03 224.71-5.03 225.74-2.12Q224.1-1 221.79-0.26 219.49 0.49 216.7 0.49ZM208.67-15.31L208.67-15.31 222.66-15.31Q222.61-19.29 221.09-21.5 219.56-23.71 216.39-23.71L216.39-23.71Q213.19-23.71 211.1-21.45 209.01-19.19 208.67-15.31Z" opacity="1" transform="matrix(1,0,0,1,0,0)" fill="black" class="wordmark-text-0" id="SvgjsPath5359"></path></svg></g></svg></g><g transform="matrix(1,0,0,1,0,99.92282433746522)"><svg viewBox="0 0 395.52 73.43182930493596" height="73.43182930493596" width="395.52"><path d="M395.52 0l-12.239 36.716 12.239 36.716h-395.52l12.239-36.716-12.239-36.716z" opacity="1" fill="black"></path><g transform="matrix(1,0,0,1,75.54432000000001,16.0237398572236)"><svg width="244.43135999999996" viewBox="0.25 -37.7 227.07 38.45" height="41.38434959048876" data-palette-color="#000000"><path d="M14-5L16.15-1.2Q13.7 0.75 10.4 0.75L10.4 0.75Q6.95 0.75 5.15-1.23 3.35-3.2 3.35-6.6L3.35-6.6 3.35-22 0.25-22 0.25-26.45 3.35-26.45 3.35-32.3 9.5-33.05 9.5-26.45 14.5-26.45 13.9-22 9.5-22 9.5-6.6Q9.5-4.2 11.55-4.2L11.55-4.2Q12.2-4.2 12.7-4.38 13.2-4.55 14-5L14-5ZM30.35-27.1Q31.5-27.1 32.4-26.75L32.4-26.75 31.4-20.85Q30.4-21.1 29.55-21.1L29.55-21.1Q27.65-21.1 26.55-19.45 25.45-17.8 24.85-14.55L24.85-14.55 24.85 0 18.7 0 18.7-26.45 24.05-26.45 24.5-21.85Q26.35-27.1 30.35-27.1L30.35-27.1ZM52.15-6.4Q52.15-5.1 52.5-4.48 52.85-3.85 53.65-3.45L53.65-3.45 52.4 0.65Q50.34 0.4 49.12-0.45 47.9-1.3 47.3-3.05L47.3-3.05Q45 0.75 40.85 0.75L40.85 0.75Q37.55 0.75 35.6-1.48 33.65-3.7 33.65-7.4L33.65-7.4Q33.65-11.7 36.32-13.95 39-16.2 44.1-16.2L44.1-16.2 46.15-16.2 46.15-18.05Q46.15-20.55 45.27-21.58 44.4-22.6 42.45-22.6L42.45-22.6Q40.1-22.6 36.6-21.3L36.6-21.3 35.2-25.3Q37.2-26.2 39.35-26.68 41.5-27.15 43.45-27.15L43.45-27.15Q52.15-27.15 52.15-18.35L52.15-18.35 52.15-6.4ZM42.5-3.7Q44.9-3.7 46.15-7L46.15-7 46.15-12.55 44.7-12.55Q42.15-12.55 40.97-11.4 39.8-10.25 39.8-7.85L39.8-7.85Q39.8-5.8 40.5-4.75 41.2-3.7 42.5-3.7L42.5-3.7ZM67.44-27.15Q69.59-27.15 71.34-26.43 73.09-25.7 74.69-24.15L74.69-24.15 72.04-20.65Q70.94-21.55 69.97-21.98 68.99-22.4 67.84-22.4L67.84-22.4Q65.59-22.4 64.44-20.28 63.29-18.15 63.29-13.1L63.29-13.1Q63.29-8.2 64.47-6.2 65.64-4.2 67.84-4.2L67.84-4.2Q68.94-4.2 69.84-4.6 70.74-5 71.94-5.85L71.94-5.85 74.69-2.3Q71.49 0.75 67.54 0.75L67.54 0.75Q62.44 0.75 59.62-2.73 56.79-6.2 56.79-13L56.79-13Q56.79-17.4 58.09-20.6 59.39-23.8 61.82-25.48 64.24-27.15 67.44-27.15L67.44-27.15ZM77.74-37.05L83.89-37.7 83.89 0 77.74 0 77.74-37.05ZM91.24-26.45L97.24-26.45 90.24-14.75 97.84 0 91.24 0 84.14-14.45 91.24-26.45ZM124.44-18.3Q127.79-17.55 129.71-15.63 131.64-13.7 131.64-9.9L131.64-9.9Q131.64-4.9 128.26-2.45 124.89 0 119.09 0L119.09 0 110.39 0 110.39-34.55 117.94-34.55Q123.89-34.55 127.14-32.3 130.39-30.05 130.39-25.75L130.39-25.75Q130.39-22.85 128.76-20.95 127.14-19.05 124.44-18.3L124.44-18.3ZM118.59-29.85L116.74-29.85 116.74-20.3 118.89-20.3Q123.94-20.3 123.94-25.2L123.94-25.2Q123.94-27.65 122.66-28.75 121.39-29.85 118.59-29.85L118.59-29.85ZM119.14-4.8Q122.04-4.8 123.54-6.03 125.04-7.25 125.04-10.15L125.04-10.15Q125.04-13.05 123.64-14.43 122.24-15.8 119.29-15.8L119.29-15.8 116.74-15.8 116.74-4.8 119.14-4.8ZM154.48-13.85Q154.48-13.4 154.33-11.3L154.33-11.3 140.68-11.3Q140.88-7.2 142.11-5.58 143.33-3.95 145.58-3.95L145.58-3.95Q147.13-3.95 148.38-4.48 149.63-5 151.08-6.15L151.08-6.15 153.63-2.65Q150.13 0.75 145.23 0.75L145.23 0.75Q140.03 0.75 137.26-2.85 134.48-6.45 134.48-13L134.48-13Q134.48-19.55 137.13-23.35 139.78-27.15 144.63-27.15L144.63-27.15Q149.28-27.15 151.88-23.78 154.48-20.4 154.48-13.85L154.48-13.85ZM148.48-15.3L148.48-15.65Q148.48-19.4 147.58-21.13 146.68-22.85 144.68-22.85L144.68-22.85Q142.83-22.85 141.86-21.18 140.88-19.5 140.68-15.3L140.68-15.3 148.48-15.3ZM169.93-5L172.08-1.2Q169.63 0.75 166.33 0.75L166.33 0.75Q162.88 0.75 161.08-1.23 159.28-3.2 159.28-6.6L159.28-6.6 159.28-22 156.18-22 156.18-26.45 159.28-26.45 159.28-32.3 165.43-33.05 165.43-26.45 170.43-26.45 169.83-22 165.43-22 165.43-6.6Q165.43-4.2 167.48-4.2L167.48-4.2Q168.13-4.2 168.63-4.38 169.13-4.55 169.93-5L169.93-5ZM185.78-5L187.93-1.2Q185.48 0.75 182.18 0.75L182.18 0.75Q178.73 0.75 176.93-1.23 175.13-3.2 175.13-6.6L175.13-6.6 175.13-22 172.03-22 172.03-26.45 175.13-26.45 175.13-32.3 181.28-33.05 181.28-26.45 186.28-26.45 185.68-22 181.28-22 181.28-6.6Q181.28-4.2 183.33-4.2L183.33-4.2Q183.98-4.2 184.48-4.38 184.98-4.55 185.78-5L185.78-5ZM209.33-13.85Q209.33-13.4 209.18-11.3L209.18-11.3 195.53-11.3Q195.73-7.2 196.95-5.58 198.18-3.95 200.43-3.95L200.43-3.95Q201.98-3.95 203.23-4.48 204.48-5 205.93-6.15L205.93-6.15 208.48-2.65Q204.98 0.75 200.08 0.75L200.08 0.75Q194.88 0.75 192.1-2.85 189.33-6.45 189.33-13L189.33-13Q189.33-19.55 191.98-23.35 194.63-27.15 199.48-27.15L199.48-27.15Q204.13-27.15 206.73-23.78 209.33-20.4 209.33-13.85L209.33-13.85ZM203.33-15.3L203.33-15.65Q203.33-19.4 202.43-21.13 201.53-22.85 199.53-22.85L199.53-22.85Q197.68-22.85 196.7-21.18 195.73-19.5 195.53-15.3L195.53-15.3 203.33-15.3ZM225.27-27.1Q226.42-27.1 227.32-26.75L227.32-26.75 226.32-20.85Q225.32-21.1 224.47-21.1L224.47-21.1Q222.57-21.1 221.47-19.45 220.37-17.8 219.77-14.55L219.77-14.55 219.77 0 213.62 0 213.62-26.45 218.97-26.45 219.42-21.85Q221.27-27.1 225.27-27.1L225.27-27.1Z" opacity="1" transform="matrix(1,0,0,1,0,0)" fill="black" class="slogan-text-1" id="SvgjsPath5358"></path></svg></g></svg></g></svg></g></svg></g><g transform="matrix(1,0,0,1,411.54373985722356,0)"><svg viewBox="0 0 179.76614002294744 179.68209850034884" height="179.68209850034884" width="179.76614002294744"><g><svg xmlns="http://www.w3.org/2000/svg" xmlns:xlink="http://www.w3.org/1999/xlink" version="1.1" x="0" y="0" viewBox="0.7607695154586737 0.7749999999999999 30.439230484541326 30.425" enable-background="new 0 0 32 32" xml:space="preserve" height="179.68209850034884" width="179.76614002294744" class="icon-icon-0" data-fill-palette-color="accent" id="SvgjsSvg5357"><g fill="black"><g fill="black"><path fill="black" d="M1.5 31.2C1.3 31.2 1.1 31.1 1 31 0.8 30.8 0.7 30.6 0.8 30.3L4.5 11.2C4.6 10.9 4.8 10.6 5.1 10.6L14.7 9.3C14.9 9.3 15.2 9.3 15.3 9.5L22.5 16.7C22.7 16.9 22.7 17.1 22.7 17.3L21.4 26.9C21.4 27.2 21.1 27.5 20.8 27.5L1.6 31.2zM5.8 12.1L2.4 29.6 19.9 26.2 21.1 17.5 14.4 10.8z"></path></g><g fill="black"><rect x="5.2" y="19.8" transform="matrix(-0.7071 -0.7071 0.7071 -0.7071 -8.3465 48.7211)" fill="black" width="1.5" height="12.6"></rect></g><g fill="black"><path fill="black" d="M12 23.1C11.2 23.1 10.4 22.8 9.8 22.2S8.9 20.9 8.9 20C8.9 19.2 9.2 18.4 9.8 17.8 11 16.6 13 16.6 14.1 17.8 15.3 19 15.3 20.9 14.1 22.1 13.6 22.8 12.8 23.1 12 23.1M12 18.4C11.6 18.4 11.2 18.6 10.9 18.9S10.4 19.6 10.4 20 10.6 20.8 10.9 21.1C11.5 21.7 12.5 21.7 13.1 21.1S13.7 19.5 13.1 18.9C12.8 18.6 12.4 18.4 12 18.4"></path></g><g fill="black"><path fill="black" d="M23.8 18.7C22.9 18.7 22 18.3 21.4 17.7L14.3 10.6C13 9.3 13 7.1 14.3 5.8L19.1 1C19.4 0.7 19.9 0.7 20.2 1L31 11.8C31.1 11.9 31.2 12.1 31.2 12.3S31.1 12.7 31 12.8L26.1 17.7C25.5 18.4 24.7 18.7 23.8 18.7M19.7 2.6L15.4 6.9C14.7 7.6 14.7 8.9 15.4 9.6L22.5 16.7C23.2 17.4 24.5 17.4 25.2 16.7L29.5 12.4z"></path></g></g></svg></g></svg></g></svg></g><defs><mask></mask></defs></svg><rect width="395.52" height="120.18717430065583" fill="black" stroke="none" visibility="hidden"></rect></g></mask><mask><g id="SvgjsG5356"><svg viewBox="0 0 395.52 120.18717430065583" height="120.18717430065583" width="395.52"><g><svg viewBox="0 0 591.309879880171 179.68209850034884" height="120.18717430065583" width="395.52"><g transform="matrix(1,0,0,1,0,3.1637224289738413)"><svg viewBox="0 0 395.52 173.35465364240116" height="173.35465364240116" width="395.52"><g id="SvgjsG5355"><svg viewBox="0 0 395.52 173.35465364240116" height="173.35465364240116" width="395.52" id="SvgjsSvg5354"><g><svg viewBox="0 0 395.52 67.87534462301801" height="67.87534462301801" width="395.52"><g transform="matrix(1,0,0,1,0,0)"><svg width="395.52" viewBox="0.15 -38.35 226.32 38.84" height="67.87534462301801" data-palette-color="url(#dcc284e5-666e-423d-b090-f7d0a8f0c145)"></svg></g></svg></g><g transform="matrix(1,0,0,1,0,99.92282433746522)"><svg viewBox="0 0 395.52 73.43182930493596" height="73.43182930493596" width="395.52"><path d="M395.52 0l-12.239 36.716 12.239 36.716h-395.52l12.239-36.716-12.239-36.716z" opacity="1" fill="black"></path><g transform="matrix(1,0,0,1,75.54432000000001,16.0237398572236)"><svg width="244.43135999999996" viewBox="0.25 -37.7 227.07 38.45" height="41.38434959048876" data-palette-color="#000000"><path d="M14-5L16.15-1.2Q13.7 0.75 10.4 0.75L10.4 0.75Q6.95 0.75 5.15-1.23 3.35-3.2 3.35-6.6L3.35-6.6 3.35-22 0.25-22 0.25-26.45 3.35-26.45 3.35-32.3 9.5-33.05 9.5-26.45 14.5-26.45 13.9-22 9.5-22 9.5-6.6Q9.5-4.2 11.55-4.2L11.55-4.2Q12.2-4.2 12.7-4.38 13.2-4.55 14-5L14-5ZM30.35-27.1Q31.5-27.1 32.4-26.75L32.4-26.75 31.4-20.85Q30.4-21.1 29.55-21.1L29.55-21.1Q27.65-21.1 26.55-19.45 25.45-17.8 24.85-14.55L24.85-14.55 24.85 0 18.7 0 18.7-26.45 24.05-26.45 24.5-21.85Q26.35-27.1 30.35-27.1L30.35-27.1ZM52.15-6.4Q52.15-5.1 52.5-4.48 52.85-3.85 53.65-3.45L53.65-3.45 52.4 0.65Q50.34 0.4 49.12-0.45 47.9-1.3 47.3-3.05L47.3-3.05Q45 0.75 40.85 0.75L40.85 0.75Q37.55 0.75 35.6-1.48 33.65-3.7 33.65-7.4L33.65-7.4Q33.65-11.7 36.32-13.95 39-16.2 44.1-16.2L44.1-16.2 46.15-16.2 46.15-18.05Q46.15-20.55 45.27-21.58 44.4-22.6 42.45-22.6L42.45-22.6Q40.1-22.6 36.6-21.3L36.6-21.3 35.2-25.3Q37.2-26.2 39.35-26.68 41.5-27.15 43.45-27.15L43.45-27.15Q52.15-27.15 52.15-18.35L52.15-18.35 52.15-6.4ZM42.5-3.7Q44.9-3.7 46.15-7L46.15-7 46.15-12.55 44.7-12.55Q42.15-12.55 40.97-11.4 39.8-10.25 39.8-7.85L39.8-7.85Q39.8-5.8 40.5-4.75 41.2-3.7 42.5-3.7L42.5-3.7ZM67.44-27.15Q69.59-27.15 71.34-26.43 73.09-25.7 74.69-24.15L74.69-24.15 72.04-20.65Q70.94-21.55 69.97-21.98 68.99-22.4 67.84-22.4L67.84-22.4Q65.59-22.4 64.44-20.28 63.29-18.15 63.29-13.1L63.29-13.1Q63.29-8.2 64.47-6.2 65.64-4.2 67.84-4.2L67.84-4.2Q68.94-4.2 69.84-4.6 70.74-5 71.94-5.85L71.94-5.85 74.69-2.3Q71.49 0.75 67.54 0.75L67.54 0.75Q62.44 0.75 59.62-2.73 56.79-6.2 56.79-13L56.79-13Q56.79-17.4 58.09-20.6 59.39-23.8 61.82-25.48 64.24-27.15 67.44-27.15L67.44-27.15ZM77.74-37.05L83.89-37.7 83.89 0 77.74 0 77.74-37.05ZM91.24-26.45L97.24-26.45 90.24-14.75 97.84 0 91.24 0 84.14-14.45 91.24-26.45ZM124.44-18.3Q127.79-17.55 129.71-15.63 131.64-13.7 131.64-9.9L131.64-9.9Q131.64-4.9 128.26-2.45 124.89 0 119.09 0L119.09 0 110.39 0 110.39-34.55 117.94-34.55Q123.89-34.55 127.14-32.3 130.39-30.05 130.39-25.75L130.39-25.75Q130.39-22.85 128.76-20.95 127.14-19.05 124.44-18.3L124.44-18.3ZM118.59-29.85L116.74-29.85 116.74-20.3 118.89-20.3Q123.94-20.3 123.94-25.2L123.94-25.2Q123.94-27.65 122.66-28.75 121.39-29.85 118.59-29.85L118.59-29.85ZM119.14-4.8Q122.04-4.8 123.54-6.03 125.04-7.25 125.04-10.15L125.04-10.15Q125.04-13.05 123.64-14.43 122.24-15.8 119.29-15.8L119.29-15.8 116.74-15.8 116.74-4.8 119.14-4.8ZM154.48-13.85Q154.48-13.4 154.33-11.3L154.33-11.3 140.68-11.3Q140.88-7.2 142.11-5.58 143.33-3.95 145.58-3.95L145.58-3.95Q147.13-3.95 148.38-4.48 149.63-5 151.08-6.15L151.08-6.15 153.63-2.65Q150.13 0.75 145.23 0.75L145.23 0.75Q140.03 0.75 137.26-2.85 134.48-6.45 134.48-13L134.48-13Q134.48-19.55 137.13-23.35 139.78-27.15 144.63-27.15L144.63-27.15Q149.28-27.15 151.88-23.78 154.48-20.4 154.48-13.85L154.48-13.85ZM148.48-15.3L148.48-15.65Q148.48-19.4 147.58-21.13 146.68-22.85 144.68-22.85L144.68-22.85Q142.83-22.85 141.86-21.18 140.88-19.5 140.68-15.3L140.68-15.3 148.48-15.3ZM169.93-5L172.08-1.2Q169.63 0.75 166.33 0.75L166.33 0.75Q162.88 0.75 161.08-1.23 159.28-3.2 159.28-6.6L159.28-6.6 159.28-22 156.18-22 156.18-26.45 159.28-26.45 159.28-32.3 165.43-33.05 165.43-26.45 170.43-26.45 169.83-22 165.43-22 165.43-6.6Q165.43-4.2 167.48-4.2L167.48-4.2Q168.13-4.2 168.63-4.38 169.13-4.55 169.93-5L169.93-5ZM185.78-5L187.93-1.2Q185.48 0.75 182.18 0.75L182.18 0.75Q178.73 0.75 176.93-1.23 175.13-3.2 175.13-6.6L175.13-6.6 175.13-22 172.03-22 172.03-26.45 175.13-26.45 175.13-32.3 181.28-33.05 181.28-26.45 186.28-26.45 185.68-22 181.28-22 181.28-6.6Q181.28-4.2 183.33-4.2L183.33-4.2Q183.98-4.2 184.48-4.38 184.98-4.55 185.78-5L185.78-5ZM209.33-13.85Q209.33-13.4 209.18-11.3L209.18-11.3 195.53-11.3Q195.73-7.2 196.95-5.58 198.18-3.95 200.43-3.95L200.43-3.95Q201.98-3.95 203.23-4.48 204.48-5 205.93-6.15L205.93-6.15 208.48-2.65Q204.98 0.75 200.08 0.75L200.08 0.75Q194.88 0.75 192.1-2.85 189.33-6.45 189.33-13L189.33-13Q189.33-19.55 191.98-23.35 194.63-27.15 199.48-27.15L199.48-27.15Q204.13-27.15 206.73-23.78 209.33-20.4 209.33-13.85L209.33-13.85ZM203.33-15.3L203.33-15.65Q203.33-19.4 202.43-21.13 201.53-22.85 199.53-22.85L199.53-22.85Q197.68-22.85 196.7-21.18 195.73-19.5 195.53-15.3L195.53-15.3 203.33-15.3ZM225.27-27.1Q226.42-27.1 227.32-26.75L227.32-26.75 226.32-20.85Q225.32-21.1 224.47-21.1L224.47-21.1Q222.57-21.1 221.47-19.45 220.37-17.8 219.77-14.55L219.77-14.55 219.77 0 213.62 0 213.62-26.45 218.97-26.45 219.42-21.85Q221.27-27.1 225.27-27.1L225.27-27.1Z" opacity="1" transform="matrix(1,0,0,1,0,0)" fill="black" class="slogan-text-1" id="SvgjsPath5353"></path></svg></g></svg></g></svg></g></svg></g><g transform="matrix(1,0,0,1,411.54373985722356,0)"><svg viewBox="0 0 179.76614002294744 179.68209850034884" height="179.68209850034884" width="179.76614002294744"><g><svg xmlns="http://www.w3.org/2000/svg" xmlns:xlink="http://www.w3.org/1999/xlink" version="1.1" x="0" y="0" viewBox="0.7607695154586737 0.7749999999999999 30.439230484541326 30.425" enable-background="new 0 0 32 32" xml:space="preserve" height="179.68209850034884" width="179.76614002294744" class="icon-icon-0" data-fill-palette-color="accent" id="SvgjsSvg5352"><g fill="black"><g fill="black"><path fill="black" d="M1.5 31.2C1.3 31.2 1.1 31.1 1 31 0.8 30.8 0.7 30.6 0.8 30.3L4.5 11.2C4.6 10.9 4.8 10.6 5.1 10.6L14.7 9.3C14.9 9.3 15.2 9.3 15.3 9.5L22.5 16.7C22.7 16.9 22.7 17.1 22.7 17.3L21.4 26.9C21.4 27.2 21.1 27.5 20.8 27.5L1.6 31.2zM5.8 12.1L2.4 29.6 19.9 26.2 21.1 17.5 14.4 10.8z"></path></g><g fill="black"><rect x="5.2" y="19.8" transform="matrix(-0.7071 -0.7071 0.7071 -0.7071 -8.3465 48.7211)" fill="black" width="1.5" height="12.6"></rect></g><g fill="black"><path fill="black" d="M12 23.1C11.2 23.1 10.4 22.8 9.8 22.2S8.9 20.9 8.9 20C8.9 19.2 9.2 18.4 9.8 17.8 11 16.6 13 16.6 14.1 17.8 15.3 19 15.3 20.9 14.1 22.1 13.6 22.8 12.8 23.1 12 23.1M12 18.4C11.6 18.4 11.2 18.6 10.9 18.9S10.4 19.6 10.4 20 10.6 20.8 10.9 21.1C11.5 21.7 12.5 21.7 13.1 21.1S13.7 19.5 13.1 18.9C12.8 18.6 12.4 18.4 12 18.4"></path></g><g fill="black"><path fill="black" d="M23.8 18.7C22.9 18.7 22 18.3 21.4 17.7L14.3 10.6C13 9.3 13 7.1 14.3 5.8L19.1 1C19.4 0.7 19.9 0.7 20.2 1L31 11.8C31.1 11.9 31.2 12.1 31.2 12.3S31.1 12.7 31 12.8L26.1 17.7C25.5 18.4 24.7 18.7 23.8 18.7M19.7 2.6L15.4 6.9C14.7 7.6 14.7 8.9 15.4 9.6L22.5 16.7C23.2 17.4 24.5 17.4 25.2 16.7L29.5 12.4z"></path></g></g></svg></g></svg></g></svg></g><defs><mask></mask></defs><mask><g id="SvgjsG5351"><svg viewBox="0 0 395.52 120.18717430065583" height="120.18717430065583" width="395.52"><g><svg viewBox="0 0 591.309879880171 179.68209850034884" height="120.18717430065583" width="395.52"><g transform="matrix(1,0,0,1,0,3.1637224289738413)"><svg viewBox="0 0 395.52 173.35465364240116" height="173.35465364240116" width="395.52"><g id="SvgjsG5350"><svg viewBox="0 0 395.52 173.35465364240116" height="173.35465364240116" width="395.52" id="SvgjsSvg5349"><g><svg viewBox="0 0 395.52 67.87534462301801" height="67.87534462301801" width="395.52"><g transform="matrix(1,0,0,1,0,0)"><svg width="395.52" viewBox="0.15 -38.35 226.32 38.84" height="67.87534462301801" data-palette-color="url(#dcc284e5-666e-423d-b090-f7d0a8f0c145)"><path d="M16.38 0.02L11.62 0.02 11.62-31.98 0.15-31.98 0.15-35.55 27.91-35.55 27.91-31.98 16.38-31.98 16.38 0.02ZM36.67 0L32.25 0 32.25-26.42 35.84-26.42 36.28-20.92Q37.64-24.19 39.65-25.46 41.65-26.73 43.89-26.73L43.89-26.73Q44.43-26.73 44.89-26.71 45.36-26.68 45.82-26.61L45.82-26.61 45.48-23.1Q45.24-23.1 44.99-23.11 44.75-23.12 44.48-23.12L44.48-23.12Q41.84-23.12 40.11-22.02 38.38-20.92 37.52-19.08 36.67-17.24 36.67-14.99L36.67-14.99 36.67 0ZM57.98 0.49L57.98 0.49Q54.19 0.49 51.83-1.42 49.46-3.32 49.46-7.18L49.46-7.18Q49.46-8.94 50.08-10.3 50.7-11.67 51.97-12.61 53.24-13.55 55.24-14.04 57.25-14.53 59.98-14.53L59.98-14.53 65.94-14.53 65.94-17.58Q65.94-20.78 64.5-22.2 63.06-23.63 60.15-23.63L60.15-23.63Q58.27-23.63 55.92-23.03 53.56-22.44 51.68-21.14L51.68-21.14 50.39-24.51Q51.73-25.37 53.35-25.92 54.98-26.46 56.75-26.73 58.52-27 60.27-27L60.27-27Q63.25-27 65.52-26.05 67.79-25.1 69.07-22.95 70.36-20.8 70.36-17.21L70.36-17.21 70.36 0 66.65 0 66.33-3.25Q65.28-2 64.03-1.17 62.79-0.34 61.29 0.07 59.79 0.49 57.98 0.49ZM58.66-2.66L58.66-2.66Q61.01-2.66 62.86-3.64 64.72-4.61 65.94-6.18L65.94-6.18 65.94-11.72 60.79-11.72Q58.1-11.72 56.54-11.21 54.98-10.69 54.33-9.68 53.68-8.67 53.68-7.13L53.68-7.13Q53.68-4.64 55.13-3.65 56.59-2.66 58.66-2.66ZM88.93 0.49L88.93 0.49Q85.27 0.49 82.57-1.2 79.88-2.88 78.4-5.97 76.92-9.06 76.92-13.26L76.92-13.26Q76.92-17.48 78.4-20.56 79.88-23.63 82.57-25.32 85.27-27 88.93-27L88.93-27Q91.84-27 93.74-26.16 95.65-25.32 96.77-24.02 97.89-22.73 98.45-21.39L98.45-21.39 95.7-19.8 95.38-19.8Q94.47-21.46 93.05-22.56 91.62-23.66 89.13-23.66L89.13-23.66Q86.61-23.66 84.9-22.42 83.2-21.19 82.34-18.86 81.49-16.53 81.49-13.26L81.49-13.26Q81.49-10.01 82.34-7.68 83.2-5.35 84.89-4.1 86.59-2.86 89.13-2.86L89.13-2.86Q91.62-2.86 93.03-3.92 94.45-4.98 95.35-6.64L95.35-6.64 95.67-6.64 98.45-5.13Q97.89-3.78 96.77-2.49 95.65-1.2 93.74-0.35 91.84 0.49 88.93 0.49ZM109.17 0L104.73 0 104.73-37.6 109.17-38.09 109.17-18.68 109.02-13.48 121.08-26.42 126.11-26.42 126.11-25.85 115.27-14.43 126.89-0.61 126.89 0 122.13 0 112.12-12.3 109.17-9.77 109.17 0ZM139.25 0.02L135.27 0.02 128.04-26.42 132.21-26.42 137.49-5.81 143.59-26.42 148.23-26.42 154.72-5.74 159.63-26.42 163.68-26.42 156.8 0.02 152.8 0.02 146.01-22.14 139.25 0.02ZM173.18 0L168.74 0 168.74-26.42 173.18-26.42 173.18 0ZM170.96-32.47L170.96-32.47Q169.47-32.47 168.66-33.25 167.86-34.03 167.86-35.45L167.86-35.45Q167.86-36.82 168.66-37.59 169.47-38.35 170.96-38.35L170.96-38.35Q172.45-38.35 173.25-37.59 174.06-36.82 174.06-35.45L174.06-35.45Q174.06-34.03 173.25-33.25 172.45-32.47 170.96-32.47ZM189.46 0.49L189.46 0.49Q186.29 0.49 183.56-0.57 180.84-1.64 179.21-3.69L179.21-3.69 181.53-5.93 181.87-5.93Q183.45-4.1 185.53-3.42 187.6-2.73 189.46-2.73L189.46-2.73Q192-2.73 193.39-3.91 194.78-5.08 194.78-7.5L194.78-7.5Q194.78-8.35 194.46-9.05 194.15-9.74 193.17-10.36 192.19-10.99 190.17-11.62L190.17-11.62 187.19-12.55Q183.99-13.55 182.45-14.65 180.92-15.75 180.44-17.04 179.96-18.33 179.96-19.9L179.96-19.9Q179.96-23.19 182.54-25.1 185.11-27 189.53-27L189.53-27Q191.68-27 193.37-26.5 195.05-26 196.3-25.13 197.54-24.27 198.32-23.14L198.32-23.14 195.91-21.17 195.66-21.17Q194.76-22.24 193.22-22.95 191.68-23.66 189.56-23.66L189.56-23.66Q187.7-23.66 186.55-23.21 185.41-22.75 184.87-21.9 184.33-21.04 184.33-19.87L184.33-19.87Q184.33-18.53 185.13-17.72 185.92-16.92 188.63-16.06L188.63-16.06 191.56-15.14Q194.73-14.11 196.28-12.94 197.83-11.77 198.33-10.46 198.84-9.16 198.84-7.67L198.84-7.67Q198.84-4.79 197.57-2.99 196.3-1.2 194.17-0.35 192.05 0.49 189.46 0.49ZM216.7 0.49L216.7 0.49Q213.14 0.49 210.27-1.15 207.4-2.78 205.73-5.85 204.06-8.91 204.06-13.13L204.06-13.13Q204.06-17.53 205.69-20.63 207.33-23.73 210.09-25.37 212.85-27 216.17-27L216.17-27Q219.41-27 221.71-25.56 224-24.12 225.24-21.46 226.47-18.8 226.47-15.14L226.47-15.14Q226.47-14.77 226.41-14.14 226.35-13.5 226.3-12.99 226.25-12.48 226.25-12.43L226.25-12.43 208.6-12.43Q208.79-9.06 209.95-6.93 211.11-4.81 213-3.81 214.9-2.81 217.27-2.81L217.27-2.81Q219.54-2.81 221.15-3.45 222.76-4.1 224.39-5.03L224.39-5.03 224.71-5.03 225.74-2.12Q224.1-1 221.79-0.26 219.49 0.49 216.7 0.49ZM208.67-15.31L208.67-15.31 222.66-15.31Q222.61-19.29 221.09-21.5 219.56-23.71 216.39-23.71L216.39-23.71Q213.19-23.71 211.1-21.45 209.01-19.19 208.67-15.31Z" opacity="1" transform="matrix(1,0,0,1,0,0)" fill="black" class="wordmark-text-0" id="SvgjsPath5348"></path></svg></g></svg></g><g transform="matrix(1,0,0,1,0,99.92282433746522)"><svg viewBox="0 0 395.52 73.43182930493596" height="73.43182930493596" width="395.52"><path d="M395.52 0l-12.239 36.716 12.239 36.716h-395.52l12.239-36.716-12.239-36.716z" opacity="1" fill="black"></path><g transform="matrix(1,0,0,1,75.54432000000001,16.0237398572236)"><svg width="244.43135999999996" viewBox="0.25 -37.7 227.07 38.45" height="41.38434959048876" data-palette-color="#000000"><path d="M14-5L16.15-1.2Q13.7 0.75 10.4 0.75L10.4 0.75Q6.95 0.75 5.15-1.23 3.35-3.2 3.35-6.6L3.35-6.6 3.35-22 0.25-22 0.25-26.45 3.35-26.45 3.35-32.3 9.5-33.05 9.5-26.45 14.5-26.45 13.9-22 9.5-22 9.5-6.6Q9.5-4.2 11.55-4.2L11.55-4.2Q12.2-4.2 12.7-4.38 13.2-4.55 14-5L14-5ZM30.35-27.1Q31.5-27.1 32.4-26.75L32.4-26.75 31.4-20.85Q30.4-21.1 29.55-21.1L29.55-21.1Q27.65-21.1 26.55-19.45 25.45-17.8 24.85-14.55L24.85-14.55 24.85 0 18.7 0 18.7-26.45 24.05-26.45 24.5-21.85Q26.35-27.1 30.35-27.1L30.35-27.1ZM52.15-6.4Q52.15-5.1 52.5-4.48 52.85-3.85 53.65-3.45L53.65-3.45 52.4 0.65Q50.34 0.4 49.12-0.45 47.9-1.3 47.3-3.05L47.3-3.05Q45 0.75 40.85 0.75L40.85 0.75Q37.55 0.75 35.6-1.48 33.65-3.7 33.65-7.4L33.65-7.4Q33.65-11.7 36.32-13.95 39-16.2 44.1-16.2L44.1-16.2 46.15-16.2 46.15-18.05Q46.15-20.55 45.27-21.58 44.4-22.6 42.45-22.6L42.45-22.6Q40.1-22.6 36.6-21.3L36.6-21.3 35.2-25.3Q37.2-26.2 39.35-26.68 41.5-27.15 43.45-27.15L43.45-27.15Q52.15-27.15 52.15-18.35L52.15-18.35 52.15-6.4ZM42.5-3.7Q44.9-3.7 46.15-7L46.15-7 46.15-12.55 44.7-12.55Q42.15-12.55 40.97-11.4 39.8-10.25 39.8-7.85L39.8-7.85Q39.8-5.8 40.5-4.75 41.2-3.7 42.5-3.7L42.5-3.7ZM67.44-27.15Q69.59-27.15 71.34-26.43 73.09-25.7 74.69-24.15L74.69-24.15 72.04-20.65Q70.94-21.55 69.97-21.98 68.99-22.4 67.84-22.4L67.84-22.4Q65.59-22.4 64.44-20.28 63.29-18.15 63.29-13.1L63.29-13.1Q63.29-8.2 64.47-6.2 65.64-4.2 67.84-4.2L67.84-4.2Q68.94-4.2 69.84-4.6 70.74-5 71.94-5.85L71.94-5.85 74.69-2.3Q71.49 0.75 67.54 0.75L67.54 0.75Q62.44 0.75 59.62-2.73 56.79-6.2 56.79-13L56.79-13Q56.79-17.4 58.09-20.6 59.39-23.8 61.82-25.48 64.24-27.15 67.44-27.15L67.44-27.15ZM77.74-37.05L83.89-37.7 83.89 0 77.74 0 77.74-37.05ZM91.24-26.45L97.24-26.45 90.24-14.75 97.84 0 91.24 0 84.14-14.45 91.24-26.45ZM124.44-18.3Q127.79-17.55 129.71-15.63 131.64-13.7 131.64-9.9L131.64-9.9Q131.64-4.9 128.26-2.45 124.89 0 119.09 0L119.09 0 110.39 0 110.39-34.55 117.94-34.55Q123.89-34.55 127.14-32.3 130.39-30.05 130.39-25.75L130.39-25.75Q130.39-22.85 128.76-20.95 127.14-19.05 124.44-18.3L124.44-18.3ZM118.59-29.85L116.74-29.85 116.74-20.3 118.89-20.3Q123.94-20.3 123.94-25.2L123.94-25.2Q123.94-27.65 122.66-28.75 121.39-29.85 118.59-29.85L118.59-29.85ZM119.14-4.8Q122.04-4.8 123.54-6.03 125.04-7.25 125.04-10.15L125.04-10.15Q125.04-13.05 123.64-14.43 122.24-15.8 119.29-15.8L119.29-15.8 116.74-15.8 116.74-4.8 119.14-4.8ZM154.48-13.85Q154.48-13.4 154.33-11.3L154.33-11.3 140.68-11.3Q140.88-7.2 142.11-5.58 143.33-3.95 145.58-3.95L145.58-3.95Q147.13-3.95 148.38-4.48 149.63-5 151.08-6.15L151.08-6.15 153.63-2.65Q150.13 0.75 145.23 0.75L145.23 0.75Q140.03 0.75 137.26-2.85 134.48-6.45 134.48-13L134.48-13Q134.48-19.55 137.13-23.35 139.78-27.15 144.63-27.15L144.63-27.15Q149.28-27.15 151.88-23.78 154.48-20.4 154.48-13.85L154.48-13.85ZM148.48-15.3L148.48-15.65Q148.48-19.4 147.58-21.13 146.68-22.85 144.68-22.85L144.68-22.85Q142.83-22.85 141.86-21.18 140.88-19.5 140.68-15.3L140.68-15.3 148.48-15.3ZM169.93-5L172.08-1.2Q169.63 0.75 166.33 0.75L166.33 0.75Q162.88 0.75 161.08-1.23 159.28-3.2 159.28-6.6L159.28-6.6 159.28-22 156.18-22 156.18-26.45 159.28-26.45 159.28-32.3 165.43-33.05 165.43-26.45 170.43-26.45 169.83-22 165.43-22 165.43-6.6Q165.43-4.2 167.48-4.2L167.48-4.2Q168.13-4.2 168.63-4.38 169.13-4.55 169.93-5L169.93-5ZM185.78-5L187.93-1.2Q185.48 0.75 182.18 0.75L182.18 0.75Q178.73 0.75 176.93-1.23 175.13-3.2 175.13-6.6L175.13-6.6 175.13-22 172.03-22 172.03-26.45 175.13-26.45 175.13-32.3 181.28-33.05 181.28-26.45 186.28-26.45 185.68-22 181.28-22 181.28-6.6Q181.28-4.2 183.33-4.2L183.33-4.2Q183.98-4.2 184.48-4.38 184.98-4.55 185.78-5L185.78-5ZM209.33-13.85Q209.33-13.4 209.18-11.3L209.18-11.3 195.53-11.3Q195.73-7.2 196.95-5.58 198.18-3.95 200.43-3.95L200.43-3.95Q201.98-3.95 203.23-4.48 204.48-5 205.93-6.15L205.93-6.15 208.48-2.65Q204.98 0.75 200.08 0.75L200.08 0.75Q194.88 0.75 192.1-2.85 189.33-6.45 189.33-13L189.33-13Q189.33-19.55 191.98-23.35 194.63-27.15 199.48-27.15L199.48-27.15Q204.13-27.15 206.73-23.78 209.33-20.4 209.33-13.85L209.33-13.85ZM203.33-15.3L203.33-15.65Q203.33-19.4 202.43-21.13 201.53-22.85 199.53-22.85L199.53-22.85Q197.68-22.85 196.7-21.18 195.73-19.5 195.53-15.3L195.53-15.3 203.33-15.3ZM225.27-27.1Q226.42-27.1 227.32-26.75L227.32-26.75 226.32-20.85Q225.32-21.1 224.47-21.1L224.47-21.1Q222.57-21.1 221.47-19.45 220.37-17.8 219.77-14.55L219.77-14.55 219.77 0 213.62 0 213.62-26.45 218.97-26.45 219.42-21.85Q221.27-27.1 225.27-27.1L225.27-27.1Z" opacity="1" transform="matrix(1,0,0,1,0,0)" fill="black" class="slogan-text-1" id="SvgjsPath5347"></path></svg></g></svg></g></svg></g></svg></g><g transform="matrix(1,0,0,1,411.54373985722356,0)"><svg viewBox="0 0 179.76614002294744 179.68209850034884" height="179.68209850034884" width="179.76614002294744"><g><svg xmlns="http://www.w3.org/2000/svg" xmlns:xlink="http://www.w3.org/1999/xlink" version="1.1" x="0" y="0" viewBox="0.7607695154586737 0.7749999999999999 30.439230484541326 30.425" enable-background="new 0 0 32 32" xml:space="preserve" height="179.68209850034884" width="179.76614002294744" class="icon-icon-0" data-fill-palette-color="accent" id="SvgjsSvg5346"><g fill="black"><g fill="black"><path fill="black" d="M1.5 31.2C1.3 31.2 1.1 31.1 1 31 0.8 30.8 0.7 30.6 0.8 30.3L4.5 11.2C4.6 10.9 4.8 10.6 5.1 10.6L14.7 9.3C14.9 9.3 15.2 9.3 15.3 9.5L22.5 16.7C22.7 16.9 22.7 17.1 22.7 17.3L21.4 26.9C21.4 27.2 21.1 27.5 20.8 27.5L1.6 31.2zM5.8 12.1L2.4 29.6 19.9 26.2 21.1 17.5 14.4 10.8z"></path></g><g fill="black"><rect x="5.2" y="19.8" transform="matrix(-0.7071 -0.7071 0.7071 -0.7071 -8.3465 48.7211)" fill="black" width="1.5" height="12.6"></rect></g><g fill="black"><path fill="black" d="M12 23.1C11.2 23.1 10.4 22.8 9.8 22.2S8.9 20.9 8.9 20C8.9 19.2 9.2 18.4 9.8 17.8 11 16.6 13 16.6 14.1 17.8 15.3 19 15.3 20.9 14.1 22.1 13.6 22.8 12.8 23.1 12 23.1M12 18.4C11.6 18.4 11.2 18.6 10.9 18.9S10.4 19.6 10.4 20 10.6 20.8 10.9 21.1C11.5 21.7 12.5 21.7 13.1 21.1S13.7 19.5 13.1 18.9C12.8 18.6 12.4 18.4 12 18.4"></path></g><g fill="black"><path fill="black" d="M23.8 18.7C22.9 18.7 22 18.3 21.4 17.7L14.3 10.6C13 9.3 13 7.1 14.3 5.8L19.1 1C19.4 0.7 19.9 0.7 20.2 1L31 11.8C31.1 11.9 31.2 12.1 31.2 12.3S31.1 12.7 31 12.8L26.1 17.7C25.5 18.4 24.7 18.7 23.8 18.7M19.7 2.6L15.4 6.9C14.7 7.6 14.7 8.9 15.4 9.6L22.5 16.7C23.2 17.4 24.5 17.4 25.2 16.7L29.5 12.4z"></path></g></g></svg></g></svg></g></svg></g><defs><mask></mask></defs></svg><rect width="395.52" height="120.18717430065583" fill="black" stroke="none" visibility="hidden"></rect></g></mask></svg><rect width="395.52" height="120.18717430065583" fill="black" stroke="none" visibility="hidden"></rect></g></mask></svg><rect width="395.52" height="120.18717430065583" fill="black" stroke="none" visibility="hidden"></rect></g></mask><linearGradient x1="0" x2="1" y1="0.578" y2="0.595" id="ba43c187-684d-4219-ad9e-bef62cef42b8"><stop stop-color="#6ee2f5" offset="0"></stop><stop stop-color="#6454f0" offset="1"></stop></linearGradient></svg><rect width="395.52" height="120.18717430065583" fill="none" stroke="none" visibility="hidden"></rect></g></svg></g></svg>